<svg width="60" height="60" viewBox="0 0 60 60" fill="none" xmlns="http://www.w3.org/2000/svg"><path d="M9.215 55h36.57L50 29H5l4.215 26zm35.26-1.484h-33.95L6.79 30.485h41.42l-3.734 23.03zM25 11c0 1.654 1.122 3 2.5 3s2.5-1.346 2.5-3c0-1.655-1.122-3-2.5-3S25 9.345 25 11zm3.59 0c0 .72-.49 1.307-1.09 1.307-.6 0-1.09-.586-1.09-1.307 0-.72.49-1.307 1.09-1.307.6 0 1.09.586 1.09 1.307zM9.934 23L11 21.98l-1.063-1.02a1.348 1.348 0 010-1.968l5.194-4.965a2.747 2.747 0 000-4.01L14.066 9l-1.068 1.02 1.065 1.019a1.348 1.348 0 010 1.968l-5.194 4.965a2.747 2.747 0 000 4.01L9.934 23zm8.13-5.993l-5.194 4.965a2.747 2.747 0 000 4.01L13.934 27l1.068-1.02-1.064-1.018a1.348 1.348 0 010-1.969l5.195-4.965a2.75 2.75 0 000-4.01L18.068 13l-1.069 1.021 1.065 1.018a1.35 1.35 0 010 1.968z" fill="#FF8A00" stroke="#FF8A00" stroke-width=".4"/><path d="M19 27.822L19.972 29c2.785-1.979 4.381-4.977 4.381-8.226v-.442c0-2.503-.513-5.083-1.526-7.667a4.286 4.286 0 01-.297-1.572c0-2.599 2.322-4.715 5.175-4.606 2.544.094 4.634 2.016 4.759 4.373a4.293 4.293 0 01-.314 1.863 20.04 20.04 0 00-1.503 7.608v.443c0 3.25 1.596 6.247 4.38 8.226L36 27.822c-2.386-1.695-3.755-4.264-3.755-7.048v-.443c0-2.426.471-4.809 1.4-7.083.32-.785.46-1.613.415-2.46-.164-3.118-2.928-5.658-6.29-5.783-3.753-.137-6.839 2.632-6.839 6.088 0 .714.133 1.413.394 2.079.948 2.421 1.43 4.83 1.43 7.16v.442c0 2.784-1.37 5.353-3.755 7.048zm34.599-17.467c-1.34-.73-3.052-.298-3.826.966L40 27.276l1.331.724 9.773-15.955c.349-.57 1.121-.765 1.726-.436s.812 1.057.463 1.627l-8.6 14.04 1.331.724 8.6-14.04c.774-1.263.316-2.876-1.025-3.605zM13 32.142L14.675 32 17 51.858 15.325 52 13 32.142zm25 19.716L40.325 32l1.675.142L39.675 52 38 51.858zM22 32.053L23.33 32 24 51.947 22.67 52 22 32.053zm9 19.894L31.67 32l1.33.053L32.33 52 31 51.947z" fill="#FF8A00" stroke="#FF8A00" stroke-width=".4"/></svg>27.8224C33.6141 26.1272 32.2455 23.5581 32.2455 20.7738V20.3315C32.2455 17.9052 32.7164 15.5222 33.6449 13.2481C33.9656 12.4633 34.1055 11.6352 34.0605 10.7875C33.896 7.66985 31.1325 5.12963 27.7694 5.00488C24.0166 4.86777 20.9312 7.63702 20.9312 11.0926C20.9312 11.8067 21.0636 12.5062 21.3247 13.172C22.2732 15.5933 22.7545 18.0022 22.7545 20.3323V20.7738C22.7545 23.5581 21.3859 26.1269 19 27.8224Z" fill="#FF8A00" stroke="#FF8A00" stroke-width="0.4"/>
<path d="M53.5986 10.3546C52.2584 9.62513 50.5469 10.057 49.7729 11.3209L40 27.2758L41.331 28L51.1039 12.0451C51.4528 11.4748 52.2252 11.2795 52.8302 11.6091C53.4353 11.938 53.6422 12.666 53.2928 13.2363L44.6932 27.2758L46.0242 28L54.6238 13.9605C55.3977 12.6973 54.9395 11.0841 53.5986 10.3546Z" fill="#FF8A00" stroke="#FF8A00" stroke-width="0.4"/>
<path d="M13 32.1423L14.6755 32L17 51.8577L15.3245 52L13 32.1423Z" fill="#FF8A00" stroke="#FF8A00" stroke-width="0.4"/>
<path d="M38 51.8577L40.3245 32L42 32.1423L39.6755 52L38 51.8577Z" fill="#FF8A00" stroke="#FF8A00" stroke-width="0.4"/>
<path d="M22 32.0525L23.3302 32L24 51.9475L22.6694 52L22 32.0525Z" fill="#FF8A00" stroke="#FF8A00" stroke-width="0.4"/>
<path d="M31 51.9475L31.6698 32L33 32.0525L32.3306 52L31 51.9475Z" fill="#FF8A00" stroke="#FF8A00" stroke-width="0.4"/>
</svg>
