<svg width="18" height="18" viewBox="0 0 18 18" fill="none" xmlns="http://www.w3.org/2000/svg"><path d="M1.96 15.26c-.17-.067-.33-.144-.43-.314-.122-.216-.126-1.058 0-1.27a.62.62 0 01.498-.309c.042-.003.087-.003.129-.003h13.747c.37 0 .637.151.678.46.045.318.036.65 0 .97-.029.261-.254.377-.482.463-4.712.004-9.424.004-14.14.004z" fill="#000"/><path d="M10 5.68c-.003.57-.157 1.238-.406 1.872-.151.39-.321.768-.435 1.18-.2.722-.116 1.406.227 2.025.252.45.146 1.005-.219 1.2-.197.106-.435.015-.595-.253-.435-.748-.624-1.608-.56-2.575a5.507 5.507 0 01.444-1.803c.181-.424.373-.84.449-1.337.097-.638.005-1.21-.281-1.722a1.016 1.016 0 01-.082-.887c.138-.378.517-.504.755-.24.27.294.414.714.538 1.146.114.397.165.81.165 1.394zm4-.136c0 .73-.177 1.375-.424 2.01-.153.393-.322.78-.435 1.196-.193.71-.11 1.383.223 1.991.255.463.156 1.017-.21 1.215-.195.107-.434.016-.587-.252-.427-.741-.617-1.59-.556-2.553a5.56 5.56 0 01.454-1.853c.169-.398.343-.787.421-1.246.113-.665.024-1.257-.27-1.796-.205-.375-.191-.784.037-1.074.171-.222.459-.248.641-.038.274.313.438.741.542 1.204.08.374.13.527.164 1.196zM4 9.29c0-.543.155-1.203.401-1.834.155-.393.328-.779.442-1.195.198-.714.117-1.398-.225-2.009-.255-.458-.149-1.027.217-1.21.204-.104.437-.012.594.259.431.745.624 1.593.559 2.555-.044.66-.215 1.253-.445 1.822-.155.386-.32.775-.418 1.192a2.533 2.533 0 00.253 1.867c.192.348.192.756.005 1.024-.247.351-.6.313-.835-.1-.36-.637-.545-1.367-.548-2.371z" fill="#000" stroke="#000" stroke-width=".4"/></svg>