<svg width="144" height="70" viewBox="0 0 144 70" fill="none" xmlns="http://www.w3.org/2000/svg">
<path d="M31.2924 14.9092C31.8057 15.5757 32.4845 16.0727 33.2668 16.3442C33.8298 16.5394 34.4423 16.6159 35.0342 16.5609L35.5183 16.5142L35.6758 16.0431C36.1436 14.6335 35.8909 13.0925 34.9928 11.9251C34.1111 10.7788 32.6624 10.1422 31.2509 10.2778L30.7667 10.3244L30.6093 10.7956C30.1417 12.2008 30.3941 13.7376 31.2924 14.9092V14.9092ZM33.8134 12.8756C34.2851 13.491 34.4839 14.2637 34.3762 15.0194C33.6312 14.9432 32.9357 14.5567 32.472 13.9538C32.0002 13.3384 31.8014 12.5659 31.9091 11.8058C32.6542 11.8822 33.3497 12.2688 33.8134 12.8756V12.8756Z" fill="#FF8A00"/>
<path d="M37.1061 14.1241C37.247 14.2091 37.4001 14.2812 37.5574 14.3322C38.3853 14.6209 39.3497 14.4554 40.1983 13.878L40.5087 13.6657L40.5336 13.2836C40.6165 12.0271 40.1195 10.9573 39.2089 10.4137C38.3107 9.87886 37.1268 9.9723 36.1212 10.6558L35.8106 10.868L35.7859 11.2502C35.703 12.5065 36.1955 13.5807 37.1061 14.1241V14.1241ZM38.4514 11.751C38.7701 11.9419 38.9728 12.3156 39.0226 12.7868C38.6004 12.9737 38.1824 12.9821 37.8634 12.791C37.5449 12.6001 37.342 12.2264 37.2924 11.7552C37.7105 11.5683 38.1328 11.5597 38.4514 11.751V11.751Z" fill="#FF8A00"/>
<path d="M43.0553 15.5675C43.25 15.678 43.4609 15.7714 43.6722 15.8435C44.6905 16.2002 45.8203 16.0984 46.7684 15.572L47.1949 15.3343L47.1576 14.8375C47.0583 13.4833 46.3047 12.2905 45.146 11.6408C43.9993 10.9998 42.5795 10.9998 41.4372 11.6364L41.0107 11.8741L41.048 12.3709C41.143 13.725 41.8964 14.9179 43.0553 15.5675V15.5675ZM44.4253 12.9947C44.9801 13.3047 45.3814 13.8183 45.5597 14.4213C44.9677 14.5912 44.3222 14.5191 43.7756 14.2174C43.221 13.9077 42.8197 13.3939 42.6414 12.7909C43.2293 12.617 43.8791 12.685 44.4253 12.9947V12.9947Z" fill="#FF8A00"/>
<path d="M45.8503 17.0917C44.418 17.3802 43.2341 18.3866 42.692 19.779L42.5098 20.2418L42.8492 20.5985C43.3211 21.0995 43.9129 21.4859 44.5589 21.7107C45.2666 21.9568 46.0282 22.0076 46.765 21.8594C48.2013 21.5707 49.3809 20.5643 49.9232 19.1719L50.1055 18.7092L49.766 18.3524C48.7725 17.2996 47.2577 16.8072 45.8503 17.0917V17.0917ZM46.4753 20.3478C45.7303 20.5005 44.9398 20.3222 44.3273 19.8766C44.7329 19.2186 45.3829 18.7558 46.1442 18.6029C46.8894 18.4543 47.6799 18.6285 48.2967 19.0741C47.8826 19.7322 47.2326 20.1949 46.4753 20.3478Z" fill="#FF8A00"/>
<path d="M50.3806 17.7709C50.6166 17.8515 50.8568 17.9154 51.101 17.9534L51.5813 18.0298L51.846 17.6096C52.645 16.3529 52.7648 14.7821 52.1689 13.4108C51.5813 12.0649 50.3272 11.0845 48.9072 10.855L48.4269 10.7786L48.162 11.1989C47.3632 12.4554 47.2432 14.0264 47.8391 15.3976C48.3233 16.5144 49.2507 17.3761 50.3806 17.7709V17.7709ZM49.1801 12.5108C49.9087 12.7742 50.4799 13.3176 50.7943 14.0434C51.1088 14.7693 51.1174 15.5802 50.8275 16.2977C50.0989 16.0346 49.5277 15.491 49.2133 14.7653C48.8986 14.0437 48.8904 13.2325 49.1801 12.5108V12.5108Z" fill="#FF8A00"/>
<path d="M62.0197 18.2932L51.8828 18.9002L51.9696 20.4414L62.1067 19.8342C62.5909 19.8046 63.0378 19.5837 63.3609 19.2101C63.6837 18.8364 63.8494 18.3568 63.8203 17.8558C63.7623 16.8284 62.8972 16.0387 61.8955 16.0983L52.8225 16.6373L52.9093 18.1783L61.9784 17.6349C62.1522 17.6265 62.3055 17.7622 62.3137 17.9446C62.3303 18.1275 62.1937 18.2804 62.0197 18.2932Z" fill="#FF8A00"/>
<path d="M39.3108 15.0326C37.8579 15.0156 36.517 15.7499 35.7138 16.9896L35.4448 17.4056L35.7056 17.8259C36.2271 18.6709 37.0179 19.3117 37.9367 19.6302C38.363 19.7789 38.8101 19.8553 39.2613 19.8595C40.7099 19.8767 42.0552 19.1422 42.8583 17.9026L43.1275 17.4866L42.8665 17.0662C42.1049 15.831 40.7433 15.0496 39.3108 15.0326V15.0326ZM39.2779 18.3227C38.5247 18.3143 37.8002 17.9832 37.2953 17.427C37.8168 16.8796 38.5329 16.5652 39.2988 16.5736C40.0519 16.582 40.7765 16.9134 41.2813 17.4696C40.7556 18.0174 40.0395 18.3315 39.2779 18.3227Z" fill="#FF8A00"/>
<path d="M50.9322 60.1311L54.0946 47.637C54.1028 47.616 54.1111 47.5988 54.1193 47.5778C54.4753 46.4868 53.3123 45.4466 51.9337 44.6359L58.9828 29.5944C59.0532 29.501 59.1029 29.3905 59.1402 29.2759C59.227 29.017 59.3138 28.7411 58.9703 28.3249L60.0174 25.1579C60.4355 23.8886 59.7732 22.5086 58.5359 22.0801C57.2983 21.6513 55.9528 22.3306 55.5305 23.5996L54.7937 25.8287C53.9908 25.455 53.047 25.0346 51.9335 24.5634C52.2979 23.8119 52.4549 22.9588 52.3556 22.0927L52.2979 21.5961L51.8342 21.4474C50.4394 20.9974 48.9326 21.2987 47.8067 22.2581C46.8217 23.0944 46.2626 24.3341 46.2587 25.6374C45.7289 25.4762 45.1907 25.3063 44.632 25.128C44.8887 23.9774 44.6611 22.8654 43.9781 22.0756C43.1504 21.1163 41.809 20.7765 40.3934 21.1715L40.0333 21.2733L39.8924 21.6257C39.6482 22.2411 39.5489 22.8654 39.5861 23.4554C39.2551 23.3407 38.9241 23.2303 38.5844 23.1115C38.4563 23.0648 38.332 23.0224 38.2038 22.9798L38.2327 22.6443C38.3488 21.392 37.8808 20.3052 36.9827 19.7363C36.1011 19.1759 34.9129 19.2395 33.8905 19.8934L33.5761 20.0973L33.5431 20.4792C33.5183 20.7637 33.5265 21.0396 33.5556 21.3027C32.4255 20.8826 31.3536 20.4706 30.3518 20.0803C31.366 20.1907 32.4007 19.9316 33.2534 19.3204L33.6508 19.0359L33.5597 18.5435C33.2866 17.0787 32.3223 15.873 30.981 15.3084C29.6316 14.7438 28.1126 14.9307 26.9329 15.7754L26.8253 15.8516C25.7863 15.5673 24.8839 15.338 24.0975 15.1511L24.8345 12.9181C25.2524 11.6488 24.5903 10.2688 23.3527 9.84026C22.1152 9.4115 20.7697 10.0908 20.3476 11.3598L19.3043 14.5147C18.7911 14.6335 18.6999 14.9011 18.6174 15.16C18.5884 15.2492 18.5677 15.3382 18.5552 15.4277L16.2828 26.5758L15.8979 26.3041C15.1695 25.7947 14.1843 25.9774 13.6463 26.7201L12.0112 28.983C11.7545 29.3353 11.6552 29.7769 11.7297 30.2182C11.804 30.6684 12.0568 31.076 12.4251 31.3305L14.9543 33.1007L14.6685 34.5101C14.6685 34.5185 14.6644 34.5273 14.6644 34.5357L13.7041 39.2521C13.0997 42.7547 23.8948 47.5052 29.8222 49.5684C31.9497 50.3115 34.0481 50.9397 36.0684 51.4575C36.3249 51.9839 36.6727 52.4595 37.103 52.8713L36.2502 54.9643C36.13 55.232 36.035 55.665 36.2626 56.1953C37.1194 58.2077 42.5665 60.1309 42.7281 60.1861H42.7324C43.4855 60.445 50.1252 62.6271 50.9486 60.1225L50.9322 60.1311V60.1311ZM47.3022 46.1895L47.1904 46.1513C44.5124 45.2173 42.9932 44.1433 42.5876 43.6295C43.2292 43.464 45.1168 43.5488 47.8611 44.4912L47.9727 44.5294C50.6509 45.4634 52.17 46.5374 52.5755 47.051C51.938 47.2169 50.0506 47.1318 47.3022 46.1895ZM22.3883 30.8509L22.9056 28.6178C24.0439 29.246 25.2775 29.8617 26.5358 30.4519L25.7617 33.2114L22.3883 30.8509ZM18.522 23.1795L18.5139 23.1751L18.8987 21.2901C21.9246 24.525 30.8778 28.2821 36.2547 30.1544C41.6232 32.0223 50.924 34.6247 55.2578 33.9711L54.4508 35.6946L54.4092 35.6775C54.1111 36.5733 47.3145 36.5393 35.4763 32.4173C23.6381 28.2951 18.2283 24.0752 18.522 23.1795V23.1795ZM23.6256 18.9128C23.3566 20.0421 23.0833 21.2137 22.802 22.4026C20.4135 20.921 19.2505 19.7832 19.3581 19.3076L19.3043 19.2906L19.7846 16.9342C20.5545 17.4354 21.7589 18.0681 23.6256 18.9128V18.9128ZM29.102 21.2223C28.7542 22.4916 28.3859 23.8163 28.0092 25.1749C26.5438 24.4872 25.2605 23.8249 24.1638 23.2051C24.4576 21.9528 24.7473 20.7257 25.029 19.5373C26.2666 20.0719 27.6366 20.6407 29.102 21.2223ZM33.3281 27.4417C31.9125 26.8899 30.6006 26.3465 29.396 25.8115C29.7811 24.4276 30.1578 23.0776 30.5136 21.7785C31.8216 22.2879 33.2002 22.8017 34.6197 23.3197C34.2056 24.6443 33.7752 26.024 33.3281 27.4417ZM45.7748 27.0938C45.2863 28.3463 44.773 29.6496 44.2473 30.9867C42.9766 30.66 41.6189 30.2779 40.1784 29.8279C40.6669 28.4269 41.1429 27.064 41.6023 25.7523C43.0386 26.2275 44.4338 26.6776 45.7748 27.0938V27.0938ZM57.1452 29.9507L56.131 32.1158L56.1019 32.1074C55.9031 32.5531 54.3013 32.7272 51.5197 32.4087C52.0039 31.2966 52.4801 30.1968 52.9395 29.127C54.9141 29.6154 56.2429 29.8659 57.1452 29.9507V29.9507ZM49.9636 32.1968C48.7218 32.0015 47.3022 31.7256 45.7291 31.3519C46.2424 30.0402 46.7474 28.7623 47.2232 27.5352C48.7341 27.9894 50.1579 28.3969 51.4577 28.745C50.9737 29.8659 50.4728 31.0207 49.9636 32.1968V32.1968ZM50.949 42.997C50.9199 43.0861 50.5805 43.3536 49.5044 43.4598C49.045 43.2729 48.6681 43.1373 48.4573 43.0648L48.3371 43.0224C48.1715 42.9672 47.6914 42.8057 47.0498 42.6319L49.2975 37.4909C50.9531 37.6948 52.4349 37.7456 53.5733 37.5671L51.0192 43.0224L50.949 42.997ZM27.0654 34.1284L27.9222 31.0844C29.2011 31.649 30.4804 32.1796 31.693 32.6592L30.4804 36.5225L27.0654 34.1284ZM31.7759 37.4268L33.1046 33.1984C33.7669 33.4489 34.4044 33.6782 34.9921 33.8818C35.5965 34.0899 36.2504 34.3106 36.9417 34.5357L35.1205 39.7701L31.7759 37.4268V37.4268ZM38.382 34.9859C39.6113 35.3596 40.915 35.733 42.2439 36.0769L39.8474 42.1477C39.1394 41.9696 38.4192 41.7741 37.6865 41.566L36.4033 40.6703L38.382 34.9859V34.9859ZM41.4369 42.5254C41.3996 42.517 41.3623 42.5084 41.329 42.5L43.7214 36.4421C45.0914 36.769 46.4575 37.0535 47.753 37.2656L45.5594 42.2793C44.0156 41.9736 42.2564 41.838 41.4369 42.5254ZM56.9589 24.0922C57.1122 23.6295 57.6048 23.3834 58.0558 23.5404C58.5068 23.6975 58.7512 24.2027 58.5981 24.6653L57.7122 27.3441C57.3067 27.0978 56.8016 26.8133 56.1682 26.4952L56.9589 24.0922V24.0922ZM48.7674 23.4384C49.3636 22.933 50.1252 22.7083 50.8783 22.8013C50.8288 23.5784 50.4728 24.3001 49.8725 24.8093C49.2805 25.3103 48.5191 25.5354 47.7616 25.4464C47.8196 24.6697 48.1756 23.9436 48.7674 23.4384V23.4384ZM50.8329 25.9984C50.8951 25.9476 50.9447 25.8923 51.0028 25.8371C53.6517 26.9536 55.2744 27.7433 56.2595 28.2781C54.8275 28.0232 52.6089 27.4884 49.7362 26.669C50.1293 26.4994 50.5016 26.2827 50.8329 25.9984V25.9984ZM41.1676 22.5722C41.8672 22.4704 42.4799 22.6573 42.8564 23.0902C43.1918 23.4768 43.3035 24.0414 43.1961 24.6569C42.5667 24.453 41.921 24.2367 41.263 24.016C41.0684 23.6124 41.027 23.1075 41.1676 22.5722ZM40.1745 25.2725C39.7108 26.5928 39.2348 27.9639 38.7423 29.3693C38.0884 29.157 37.422 28.9319 36.7431 28.6942C36.0561 28.4565 35.3897 28.2144 34.744 27.977C35.1909 26.5504 35.6255 25.1623 36.0395 23.8291C36.7184 24.0712 37.4095 24.3173 38.105 24.5592C38.7959 24.8053 39.4873 25.043 40.1745 25.2725V25.2725ZM35.0376 21.01C35.464 20.836 35.8862 20.8404 36.1965 21.0398C36.511 21.2395 36.7016 21.6173 36.7429 22.0885C36.5069 22.1861 36.2749 22.2199 36.0598 22.2073C35.8862 22.1437 35.704 22.0801 35.5342 22.0164C35.2527 21.8081 35.0748 21.4514 35.0376 21.01V21.01ZM21.4899 16.1661C22.6243 16.3656 24.3749 16.7604 26.9084 17.4611C27.2022 18.1655 27.6702 18.7772 28.2659 19.2311C25.1778 17.966 22.8763 16.909 21.4899 16.1661ZM30.4182 16.7266C31.1259 17.0197 31.6682 17.5925 31.9413 18.3058C31.2625 18.6157 30.4802 18.6413 29.7766 18.344C29.0686 18.0511 28.5263 17.4781 28.2534 16.7648C28.9321 16.4546 29.7104 16.4292 30.4182 16.7266ZM21.7839 11.8401C21.9371 11.3773 22.4296 11.1312 22.8806 11.2882C23.3316 11.4453 23.5761 11.9505 23.4229 12.4131L22.6239 14.8076C21.9328 14.6678 21.3614 14.5743 20.8938 14.5191L21.7839 11.8401V11.8401ZM18.0956 25.2259C18.8985 26.0748 20.1031 26.958 21.5393 27.8283L21.0551 29.9211L17.6278 27.5226L18.0956 25.2259V25.2259ZM23.3814 41.6977C23.0751 42.7971 22.777 43.8669 22.4914 44.9072C21.3573 44.3509 20.3515 43.8161 19.4824 43.3025C19.7307 42.2539 19.9832 41.1755 20.2399 40.0803C21.2334 40.6365 22.2972 41.1799 23.3814 41.6977ZM24.7682 42.339C25.9312 42.861 27.0945 43.3494 28.1994 43.7865C27.856 44.8775 27.5248 45.939 27.2058 46.9706C26.0057 46.4994 24.8961 46.0282 23.8778 45.5612C24.1638 44.5166 24.4619 43.4384 24.7682 42.339ZM16.1421 34.8118L16.2953 34.0519L27.376 41.8126C19.9086 38.7304 16.1585 35.7968 16.1421 34.8118V34.8118ZM15.1609 39.6217L15.7321 36.8282C16.4852 37.6349 17.5824 38.4626 18.886 39.2736C18.6338 40.3602 18.381 41.4258 18.1368 42.466C16.1585 41.1713 15.1691 40.1397 15.1609 39.6217ZM28.6176 47.5096C28.9364 46.4822 29.2717 45.4166 29.6111 44.3299C30.2114 44.5548 30.791 44.7671 31.3247 44.954C31.6725 45.0772 32.0201 45.1919 32.3637 45.3063L33.026 45.7691C32.6781 46.7667 32.3346 47.7433 32.0036 48.69C31.4365 48.5074 30.8694 48.3163 30.2982 48.117C29.7229 47.9129 29.164 47.7135 28.6176 47.5096V47.5096ZM34.2512 46.8387C34.9467 47.6454 35.4061 48.6514 35.5549 49.7384C34.8595 49.5516 34.1601 49.3521 33.4481 49.14C33.7089 48.3927 33.9779 47.6244 34.2512 46.8387ZM37.0492 49.5688C36.7925 47.5776 35.7162 45.7861 34.102 44.6567L33.0589 43.9266L33.0632 43.9182C33.055 43.914 33.0464 43.914 33.0382 43.9098L13.2735 30.0656C13.2404 30.0444 13.2195 30.0062 13.2113 29.9677C13.2072 29.9423 13.2113 29.9211 13.2195 29.9085L14.8546 27.6456C14.9001 27.582 14.983 27.5438 15.0493 27.5864L40.2159 45.2089L37.7324 51.3221C37.3682 50.8211 37.1362 50.235 37.0492 49.5688ZM37.6329 55.5757L41.7888 45.3489L41.9376 45.128C42.5585 45.6757 43.3946 46.1638 44.206 46.5674C43.6016 48.2827 42.9684 50.091 42.3307 51.9037C41.6602 53.8182 40.9897 55.7204 40.3563 57.5247C38.949 56.8112 37.7365 56.0259 37.6329 55.5757V55.5757ZM43.2042 58.7344C42.753 58.5857 42.2482 58.3862 41.7263 58.1655C42.3722 56.3314 43.0593 54.3829 43.7466 52.4257C44.3714 50.6468 44.9925 48.8723 45.5883 47.1868C46.081 47.3907 46.4866 47.535 46.7102 47.6114L46.8303 47.6538C46.9916 47.709 47.4637 47.8661 48.0929 48.0404C47.5714 49.7639 47.0373 51.5385 46.4993 53.313C45.899 55.2998 45.2947 57.2868 44.7194 59.1971C44.2391 59.0655 43.7341 58.9168 43.2042 58.7344V58.7344ZM46.1887 59.5367C46.7558 57.6603 47.3436 55.7158 47.9313 53.7714C48.4818 51.9587 49.028 50.1502 49.5581 48.3927C50.4687 48.5752 51.4579 48.7024 52.2899 48.6346L49.5126 59.6047C49.1855 59.817 47.9891 59.8806 46.1887 59.5367Z" fill="#FF8A00"/>
<path d="M112.481 24.3656L114.385 17.7863H117.339L113.196 30.0063L112.967 30.5636C112.35 31.9465 111.333 32.6381 109.919 32.6381C109.519 32.6381 109.11 32.5751 108.698 32.4536V30.3122L109.118 30.3206C109.641 30.3206 110.03 30.2408 110.287 30.0775C110.544 29.9141 110.745 29.6458 110.892 29.2645L111.214 28.3929L107.603 17.7863H110.565L112.481 24.3656V24.3656Z" fill="#FF8A00"/>
<path d="M86.2666 23.3823C86.2666 24.4578 86.468 25.4214 86.8748 26.2646C87.2775 27.1079 87.8606 27.7617 88.6197 28.222C89.379 28.6822 90.2598 28.9147 91.2666 28.9147C92.6968 28.9147 93.8629 28.4672 94.7647 27.5681C95.6665 26.6732 96.174 25.4558 96.2748 23.9156L96.2957 23.1715C96.2957 21.5066 95.8426 20.1687 94.9367 19.1618C94.0306 18.1552 92.8143 17.6519 91.2875 17.6519C89.7606 17.6519 88.5444 18.1552 87.6342 19.1576C86.724 20.16 86.2709 21.528 86.2709 23.2532V23.3823H86.2666V23.3823ZM89.0979 23.1715C89.0979 22.1433 89.2867 21.3516 89.6642 20.8097C90.0417 20.2634 90.5828 19.9923 91.2875 19.9923C91.9713 19.9923 92.508 20.2634 92.8939 20.8011C93.2799 21.3388 93.4729 22.1991 93.4729 23.3865C93.4729 24.3975 93.2799 25.1805 92.8939 25.7355C92.508 26.286 91.967 26.5657 91.2666 26.5657C90.5744 26.5657 90.0417 26.2904 89.6601 25.7355C89.2867 25.1847 89.0979 24.3287 89.0979 23.1715V23.1715Z" fill="#FF8A00"/>
<path d="M106.706 28.9608H103.796V25.4543C103.253 25.5559 102.748 25.609 102.278 25.609C100.636 25.609 99.398 25.2508 98.566 24.5346C97.7338 23.8182 97.3112 22.7746 97.2983 21.3993V17.7999H100.204V21.3993C100.213 22.0449 100.364 22.5092 100.666 22.7878C100.972 23.0664 101.506 23.2036 102.278 23.2036C102.761 23.2036 103.265 23.146 103.796 23.0265V17.7955H106.702V28.9608H106.706V28.9608Z" fill="#FF8A00"/>
<path d="M79.7409 19.2479L82.2795 14.4618H85.4873L81.5462 21.3447L85.5909 28.3419H82.3431L79.7409 23.4823L77.1387 28.3461H73.895L77.9397 21.3447L73.9986 14.4618H77.2064L79.7409 19.2479Z" fill="#FF8A00"/>
<path d="M123.097 28.8217V17.5633H127.68C129.177 17.5633 130.32 17.8354 131.12 18.3751C131.921 18.9149 132.316 19.691 132.316 20.7035C132.316 21.2254 132.147 21.6893 131.816 22.1042C131.477 22.5189 130.99 22.8357 130.346 23.0587C131.129 23.2103 131.747 23.5135 132.199 23.9597C132.651 24.4057 132.873 24.9588 132.873 25.6101C132.873 26.6583 132.49 27.4566 131.721 28.0053C130.955 28.5539 129.838 28.8261 128.376 28.8261H123.097V28.8217V28.8217ZM126.028 24.1514V26.4175H128.389C129.424 26.4175 129.942 26.0473 129.942 25.3023C129.942 24.5485 129.451 24.1649 128.463 24.1514H126.028V24.1514ZM126.028 22.1309H127.846C128.872 22.1174 129.39 21.7785 129.39 21.1093C129.39 20.699 129.251 20.4091 128.968 20.2352C128.685 20.0658 128.255 19.9765 127.68 19.9765H126.028V22.1309V22.1309Z" fill="#FF8A00"/>
<path d="M93.7563 35.2767H87.7133V37.9668H89.8897C91.4841 37.9668 92.7437 38.3633 93.6767 39.1524C94.6094 39.9456 95.0758 41.0085 95.0758 42.3536C95.0758 43.7027 94.6133 44.7822 93.6845 45.5998C92.7597 46.4174 91.5281 46.8305 89.9894 46.8426H84.895V32.9586H93.7563V35.2767ZM87.7133 40.2726V44.5451H89.9376C90.6511 44.5451 91.2171 44.3446 91.6436 43.944C92.0702 43.5433 92.2815 43.0077 92.2815 42.3332C92.2815 41.7035 92.0782 41.2048 91.6716 40.841C91.265 40.4771 90.7069 40.285 90.0013 40.2726H87.7133V40.2726Z" fill="#FF8A00"/>
<path d="M116.51 35.7765H113.569V40.1049H109.923V35.7765H106.991V47.0393H109.923V42.5236H113.565V47.0393H116.51V35.7765Z" fill="#FF8A00"/>
<path d="M102.719 46.8022C102.589 46.5399 102.492 46.2172 102.433 45.83C101.75 46.613 100.861 47.0044 99.7616 47.0044C98.7255 47.0044 97.8657 46.6991 97.1821 46.0794C96.4983 45.4642 96.1587 44.6856 96.1587 43.7521C96.1587 42.5991 96.5739 41.7172 97.4044 41.102C98.2432 40.4868 99.4429 40.1771 101.016 40.1685H102.316V39.5446C102.316 39.0413 102.19 38.6413 101.939 38.3402C101.687 38.0389 101.293 37.8884 100.751 37.8884C100.273 37.8884 99.9 38.0045 99.6316 38.2411C99.3632 38.4736 99.2248 38.7961 99.2248 39.2049H96.3976C96.3976 38.5767 96.5864 37.9917 96.9639 37.4581C97.3414 36.9248 97.8784 36.5032 98.5703 36.1976C99.2625 35.8923 100.038 35.7416 100.898 35.7416C102.203 35.7416 103.239 36.0773 104.006 36.7526C104.774 37.4237 105.156 38.3702 105.156 39.5877V44.2942C105.164 45.3223 105.303 46.1053 105.575 46.6302V46.8022H102.719V46.8022ZM100.378 44.7845C100.793 44.7845 101.179 44.6901 101.532 44.5007C101.884 44.3115 102.144 44.0532 102.316 43.7349V41.8636H101.259C99.8456 41.8636 99.0905 42.3669 98.9982 43.3693L98.9898 43.5413C98.9898 43.9026 99.1157 44.1995 99.3632 44.4362C99.6108 44.6684 99.9504 44.7845 100.378 44.7845V44.7845Z" fill="#FF8A00"/>
<path d="M121.234 42.6163H122.761C122.97 43.967 123.507 45.0339 124.38 45.8127C125.252 46.5913 126.347 46.9829 127.672 46.9829C129.103 46.9829 130.269 46.5354 131.171 45.6363C132.072 44.7414 132.58 43.524 132.681 41.9838L132.702 41.2395C132.702 39.5746 132.249 38.2366 131.343 37.23C130.437 36.2234 129.22 35.7201 127.693 35.7201C126.318 35.7201 125.189 36.1287 124.313 36.9461C123.436 37.7636 122.907 38.8691 122.731 40.2673H121.234V35.9223H118.398V46.7807H121.234V42.6163V42.6163ZM125.5 41.2395C125.5 40.2114 125.688 39.4198 126.066 38.8777C126.443 38.3313 126.985 38.0602 127.689 38.0602C128.386 38.0602 128.927 38.3313 129.304 38.8735C129.682 39.4154 129.87 40.2759 129.87 41.4547C129.87 42.4657 129.677 43.2485 129.291 43.8035C128.906 44.3584 128.364 44.6381 127.668 44.6381C126.976 44.6381 126.443 44.3628 126.062 43.8079C125.688 43.2529 125.5 42.3968 125.5 41.2395Z" fill="#FF8A00"/>
</svg>
