<svg width="30" height="30" viewBox="0 0 30 30" fill="none" xmlns="http://www.w3.org/2000/svg"><path d="M15.5 2C8.6 2 3 7.6 3 14.5S8.6 27 15.5 27 28 21.4 28 14.5 22.4 2 15.5 2zm0 5a4.38 4.38 0 014.375 4.375A4.38 4.38 0 0115.5 15.75a4.38 4.38 0 01-4.375-4.375A4.38 4.38 0 0115.5 7zm0 17.5c-2.537 0-5.537-1.025-7.675-3.6a12.433 12.433 0 0115.35 0c-2.137 2.575-5.137 3.6-7.675 3.6z" fill="#2F2F2F"/></svg> 20.9C10.0145 19.1821 12.717 18.2485 15.5 18.2485C18.283 18.2485 20.9855 19.1821 23.175 20.9C21.0375 23.475 18.0375 24.5 15.5 24.5Z" fill="#2F2F2F"/>
</svg>
