<svg width="27" height="27" viewBox="0 0 27 27" fill="none" xmlns="http://www.w3.org/2000/svg">
<path d="M13.5376 4.32788C17.5586 4.32788 20.8179 7.58721 20.8179 11.6082C20.8179 14.6846 18.6562 18.0372 14.3889 21.702C14.1516 21.9059 13.849 22.0178 13.5362 22.0175C13.2234 22.0173 12.9211 21.9048 12.6841 21.7005L12.4019 21.4556C8.32343 17.8864 6.25732 14.6159 6.25732 11.6082C6.25732 7.58721 9.51666 4.32788 13.5376 4.32788ZM13.5376 8.80806C12.795 8.80806 12.0828 9.10307 11.5576 9.6282C11.0325 10.1533 10.7375 10.8655 10.7375 11.6082C10.7375 12.3508 11.0325 13.063 11.5576 13.5882C12.0828 14.1133 12.795 14.4083 13.5376 14.4083C14.2803 14.4083 14.9925 14.1133 15.5176 13.5882C16.0427 13.063 16.3377 12.3508 16.3377 11.6082C16.3377 10.8655 16.0427 10.1533 15.5176 9.6282C14.9925 9.10307 14.2803 8.80806 13.5376 8.80806Z" fill="#2F2F2F"/>
</svg>
