<svg width="144" height="70" viewBox="0 0 144 70" fill="none" xmlns="http://www.w3.org/2000/svg"><path d="M31.292 14.91a4.247 4.247 0 001.975 1.434 4.242 4.242 0 001.767.217l.484-.046.158-.472a4.447 4.447 0 00-.683-4.118c-.882-1.146-2.33-1.783-3.742-1.647l-.484.047-.158.47a4.443 4.443 0 00.683 4.114zm2.521-2.034a2.86 2.86 0 01.563 2.144 2.77 2.77 0 01-1.904-1.066 2.864 2.864 0 01-.563-2.148c.745.077 1.44.463 1.904 1.07zm3.293 1.248c.141.085.294.157.451.208.828.289 1.793.124 2.641-.454l.31-.212.026-.382c.083-1.257-.414-2.327-1.325-2.87-.898-.535-2.082-.442-3.088.242l-.31.212-.025.382c-.083 1.257.41 2.33 1.32 2.874zm1.345-2.373c.32.191.522.565.572 1.036-.423.187-.84.195-1.16.004-.318-.19-.521-.565-.57-1.036.418-.187.84-.195 1.158-.004zm4.604 3.817a3.8 3.8 0 003.713.004l.427-.238-.037-.496a3.977 3.977 0 00-2.012-3.197 3.828 3.828 0 00-3.709-.004l-.426.237.037.497a3.962 3.962 0 002.007 3.197zm1.37-2.573c.555.31.956.823 1.135 1.427a2.358 2.358 0 01-1.784-.204 2.41 2.41 0 01-1.135-1.427 2.306 2.306 0 011.784.204zm1.425 4.097c-1.432.288-2.616 1.295-3.158 2.687l-.182.463.34.357a4.309 4.309 0 001.709 1.112 4.19 4.19 0 002.206.148c1.436-.288 2.616-1.295 3.158-2.687l.182-.463-.339-.357c-.993-1.052-2.508-1.545-3.916-1.26zm.625 3.256a2.745 2.745 0 01-2.148-.471 2.772 2.772 0 011.817-1.274 2.776 2.776 0 012.153.471 2.81 2.81 0 01-1.822 1.274zm3.905-2.578c.237.082.477.145.721.183l.48.077.265-.42a4.486 4.486 0 00.323-4.2c-.588-1.345-1.842-2.325-3.262-2.555l-.48-.076-.265.42a4.486 4.486 0 00-.323 4.199 4.344 4.344 0 002.542 2.373zm-1.2-5.26a2.78 2.78 0 011.614 1.533c.315.726.323 1.537.034 2.255a2.777 2.777 0 01-1.615-1.533 2.917 2.917 0 01-.033-2.254zm12.84 5.783l-10.137.607.087 1.542 10.137-.608c.484-.03.93-.25 1.254-.624.323-.374.488-.853.46-1.354-.059-1.028-.924-1.817-1.925-1.758l-9.074.54.087 1.54 9.07-.543a.322.322 0 01.335.31.32.32 0 01-.294.348zm-22.71-3.26c-1.452-.017-2.793.717-3.596 1.957l-.27.416.262.42a4.287 4.287 0 002.23 1.804c.427.149.874.225 1.325.23 1.449.017 2.794-.718 3.597-1.957l.27-.416-.261-.42c-.762-1.236-2.124-2.017-3.556-2.034zm-.032 3.29a2.736 2.736 0 01-1.983-.896 2.717 2.717 0 012.004-.853c.753.008 1.477.34 1.982.896a2.727 2.727 0 01-2.003.853z" fill="#FF8A00"/><path d="M50.932 60.131l3.163-12.494.024-.06c.356-1.09-.807-2.13-2.185-2.941l7.049-15.042c.07-.093.12-.203.157-.318.087-.259.174-.535-.17-.951l1.047-3.167c.418-1.27-.244-2.65-1.481-3.078-1.238-.429-2.583.25-3.005 1.52l-.737 2.229a88.819 88.819 0 00-2.86-1.265 4.485 4.485 0 00.422-2.471l-.058-.497-.464-.148a4.19 4.19 0 00-4.027.81 4.443 4.443 0 00-1.548 3.38 146.95 146.95 0 01-1.627-.51c.257-1.15.03-2.262-.654-3.052-.828-.96-2.169-1.3-3.585-.904l-.36.101-.14.353a4.245 4.245 0 00-.307 1.83c-.33-.115-.662-.226-1.002-.344-.128-.047-.252-.09-.38-.132l.029-.336c.116-1.252-.352-2.339-1.25-2.907-.882-.561-2.07-.497-3.092.157l-.315.203-.033.382a4.18 4.18 0 00.013.824 211.14 211.14 0 01-3.204-1.223 4.197 4.197 0 002.901-.76l.398-.284-.091-.492a4.352 4.352 0 00-2.579-3.236 4.166 4.166 0 00-4.048.467l-.108.077a83.2 83.2 0 00-2.727-.7l.736-2.234c.418-1.27-.244-2.65-1.481-3.078-1.238-.428-2.583.25-3.005 1.52l-1.044 3.155c-.513.119-.604.386-.687.645-.029.09-.05.178-.062.268l-2.272 11.148-.385-.272c-.729-.51-1.714-.326-2.252.416l-1.635 2.263a1.625 1.625 0 00-.281 1.235c.074.45.327.858.695 1.113l2.53 1.77-.287 1.41c0 .008-.004.016-.004.025l-.96 4.716c-.604 3.503 10.19 8.253 16.118 10.316a76.892 76.892 0 006.246 1.89 4.96 4.96 0 001.035 1.413l-.853 2.093c-.12.268-.215.701.013 1.232.856 2.012 6.303 3.935 6.465 3.99h.004c.754.26 7.393 2.441 8.217-.063l-.017.008zm-3.63-13.941l-.112-.039c-2.678-.934-4.197-2.008-4.602-2.521.641-.166 2.529-.081 5.273.861l.112.038c2.678.934 4.197 2.008 4.602 2.522-.637.166-2.524.08-5.273-.861zM22.388 30.85l.518-2.233a62.574 62.574 0 003.63 1.834l-.774 2.76-3.374-2.361zm-3.866-7.671l-.008-.005.385-1.885c3.026 3.235 11.979 6.992 17.356 8.864 5.368 1.868 14.669 4.47 19.003 3.817l-.807 1.724-.042-.017c-.298.895-7.094.861-18.933-3.26-11.838-4.123-17.248-8.343-16.954-9.238zm5.104-4.267c-.27 1.13-.543 2.3-.824 3.49-2.389-1.482-3.552-2.62-3.444-3.095l-.054-.017.48-2.357c.77.502 1.975 1.134 3.842 1.979zm5.476 2.31c-.348 1.269-.716 2.594-1.093 3.952a57.544 57.544 0 01-3.845-1.97c.294-1.252.583-2.48.865-3.668a148.14 148.14 0 004.073 1.685zm4.226 6.219a92.397 92.397 0 01-3.932-1.63c.385-1.384.762-2.734 1.118-4.033 1.308.51 2.686 1.023 4.106 1.54-.414 1.325-.845 2.705-1.292 4.123zm12.447-.348c-.489 1.252-1.002 2.556-1.528 3.893a82.807 82.807 0 01-4.069-1.159l1.424-4.076c1.437.476 2.832.926 4.173 1.342zm11.37 2.857l-1.014 2.165-.03-.008c-.198.445-1.8.62-4.581.3.484-1.111.96-2.211 1.42-3.28 1.974.488 3.303.738 4.205.823zm-7.181 2.246a56.185 56.185 0 01-4.235-.845c.513-1.312 1.018-2.59 1.494-3.817 1.511.454 2.935.862 4.235 1.21-.484 1.121-.985 2.276-1.494 3.452zm.985 10.8c-.03.09-.368.357-1.445.463a20.12 20.12 0 00-1.047-.395l-.12-.042a22.184 22.184 0 00-1.287-.391l2.248-5.141c1.655.204 3.137.255 4.275.076l-2.554 5.456-.07-.026zM27.065 34.13l.857-3.044c1.28.564 2.558 1.095 3.771 1.574l-1.213 3.864-3.415-2.395zm4.71 3.298l1.33-4.228c.662.25 1.3.48 1.887.683a122 122 0 001.95.654L35.12 39.77l-3.344-2.343zm6.607-2.441a96.1 96.1 0 003.862 1.091l-2.397 6.07a74.022 74.022 0 01-2.16-.58l-1.284-.897 1.979-5.684zm3.055 7.54a4.466 4.466 0 01-.108-.026l2.392-6.058a57.81 57.81 0 004.032.824l-2.194 5.014c-1.543-.306-3.303-.442-4.122.245zm15.522-18.434a.86.86 0 011.097-.551.895.895 0 01.542 1.124l-.886 2.68a21.26 21.26 0 00-1.544-.85l.79-2.403zm-8.192-.653a2.737 2.737 0 012.111-.638 2.86 2.86 0 01-1.005 2.008 2.76 2.76 0 01-2.111.637 2.92 2.92 0 011.005-2.008zM50.833 26c.062-.051.112-.107.17-.162 2.649 1.117 4.271 1.906 5.257 2.441-1.432-.255-3.651-.79-6.524-1.609.393-.17.766-.386 1.097-.67zm-9.665-3.427c.7-.101 1.312.085 1.688.518.336.387.447.951.34 1.567-.63-.204-1.275-.42-1.933-.64-.195-.404-.236-.91-.095-1.445zm-.993 2.7c-.464 1.32-.94 2.692-1.433 4.097a109.258 109.258 0 01-3.998-1.392c.447-1.427.882-2.815 1.295-4.148.68.242 1.37.488 2.066.73.69.246 1.382.484 2.07.714zm-5.137-4.262c.426-.174.848-.17 1.159.03.314.2.505.577.546 1.049a1.543 1.543 0 01-.683.118c-.174-.063-.356-.127-.526-.19-.281-.209-.46-.566-.496-1.007zM21.49 16.166c1.134.2 2.885.595 5.418 1.295a4.305 4.305 0 001.358 1.77c-3.088-1.265-5.39-2.322-6.776-3.065zm8.928.56c.708.294 1.25.867 1.523 1.58a2.686 2.686 0 01-2.164.038 2.766 2.766 0 01-1.524-1.58 2.685 2.685 0 012.165-.037zm-8.634-4.886a.86.86 0 011.097-.552.895.895 0 01.542 1.125l-.8 2.395a21.8 21.8 0 00-1.73-.289l.89-2.679zm-3.688 13.386c.802.849 2.007 1.732 3.443 2.602l-.484 2.093-3.427-2.398.468-2.297zm5.285 16.472c-.306 1.1-.604 2.17-.89 3.21a44.424 44.424 0 01-3.009-1.605c.249-1.049.501-2.127.758-3.223a55.01 55.01 0 003.141 1.618zm1.387.641a83.068 83.068 0 003.431 1.448 665.892 665.892 0 00-.993 3.184 64.89 64.89 0 01-3.328-1.41c.286-1.044.584-2.123.89-3.222zm-8.626-7.527l.153-.76 11.081 7.76c-7.467-3.081-11.218-6.015-11.234-7zm-.981 4.81l.571-2.794c.753.807 1.85 1.635 3.154 2.446-.252 1.086-.505 2.152-.75 3.192-1.977-1.295-2.967-2.326-2.975-2.844zm13.457 7.888c.318-1.028.654-2.093.993-3.18.6.225 1.18.437 1.714.624.348.123.695.238 1.039.352l.662.463c-.348.998-.691 1.974-1.022 2.921a74.776 74.776 0 01-3.386-1.18zm5.633-.671a5.606 5.606 0 011.304 2.9 81.144 81.144 0 01-2.107-.599l.803-2.301zm2.798 2.73c-.257-1.991-1.333-3.783-2.947-4.912l-1.043-.73.004-.009c-.008-.004-.017-.004-.025-.008L13.274 30.066a.154.154 0 01-.063-.098.086.086 0 01.008-.06l1.636-2.262c.045-.064.128-.102.194-.06L40.216 45.21l-2.484 6.113a3.766 3.766 0 01-.683-1.753zm.584 6.007l4.156-10.227.149-.22c.62.547 1.457 1.035 2.268 1.439-.604 1.715-1.238 3.523-1.875 5.336-.67 1.914-1.341 3.816-1.975 5.62-1.407-.713-2.62-1.498-2.723-1.948zm5.571 3.158a20.012 20.012 0 01-1.478-.568c.646-1.834 1.333-3.783 2.02-5.74.625-1.78 1.246-3.554 1.842-5.239.493.204.899.348 1.122.425l.12.042c.162.055.634.212 1.263.386-.522 1.724-1.056 3.499-1.594 5.273-.6 1.987-1.204 3.974-1.78 5.884-.48-.131-.985-.28-1.515-.463zm2.985.803l1.742-5.765c.55-1.813 1.097-3.622 1.627-5.38.91.183 1.9.31 2.732.243l-2.777 10.97c-.328.212-1.524.276-3.324-.068zm66.292-35.171l1.904-6.58h2.954l-4.143 12.22-.229.558c-.617 1.383-1.634 2.074-3.048 2.074-.4 0-.809-.063-1.221-.184v-2.142l.42.009c.523 0 .912-.08 1.169-.243.257-.164.458-.432.605-.813l.322-.872-3.611-10.607h2.962l1.916 6.58zm-26.214-.983c0 1.075.201 2.039.608 2.882.403.843.986 1.497 1.745 1.957.759.46 1.64.693 2.647.693 1.43 0 2.596-.448 3.498-1.347.901-.895 1.409-2.112 1.51-3.652l.02-.744c0-1.665-.452-3.003-1.358-4.01-.906-1.007-2.123-1.51-3.65-1.51-1.526 0-2.743.503-3.653 1.506-.91 1.002-1.363 2.37-1.363 4.095v.13h-.004zm2.83-.211c0-1.029.19-1.82.567-2.362.378-.546.919-.817 1.623-.817.684 0 1.221.27 1.607.808.386.538.579 1.398.579 2.586 0 1.01-.193 1.794-.58 2.349-.385.55-.926.83-1.626.83-.693 0-1.225-.275-1.607-.83-.373-.551-.562-1.407-.562-2.564zm17.609 5.789h-2.91v-3.506a8.289 8.289 0 01-1.518.154c-1.642 0-2.88-.358-3.712-1.074-.832-.717-1.255-1.76-1.268-3.136V17.8h2.906v3.6c.009.645.16 1.11.462 1.388.306.279.84.416 1.612.416.483 0 .987-.058 1.518-.177v-5.231h2.906V28.96h.004zM79.74 19.248l2.54-4.786h3.207l-3.94 6.883 4.044 6.997h-3.248l-2.602-4.86-2.602 4.864h-3.244l4.045-7.001-3.941-6.883h3.207l2.535 4.786zm43.357 9.574V17.564h4.583c1.497 0 2.64.272 3.44.811.801.54 1.196 1.316 1.196 2.329 0 .522-.169.985-.5 1.4-.339.415-.826.732-1.47.955.783.151 1.401.455 1.853.9.452.447.674 1 .674 1.651 0 1.049-.383 1.847-1.152 2.396-.766.548-1.883.82-3.345.82h-5.279v-.004zm2.931-4.67v2.266h2.361c1.035 0 1.553-.37 1.553-1.116 0-.753-.491-1.137-1.479-1.15h-2.435zm0-2.021h1.818c1.026-.013 1.544-.352 1.544-1.021 0-.41-.139-.7-.422-.875-.283-.17-.713-.258-1.288-.258h-1.652v2.154zM93.756 35.277h-6.043v2.69h2.177c1.594 0 2.854.397 3.787 1.186.932.793 1.399 1.856 1.399 3.2 0 1.35-.463 2.43-1.391 3.247-.925.818-2.157 1.23-3.696 1.243h-5.094V32.959h8.861v2.318zm-6.043 4.996v4.272h2.225c.713 0 1.28-.2 1.706-.6.426-.401.637-.937.637-1.612 0-.63-.203-1.128-.61-1.492-.406-.364-.964-.556-1.67-.568h-2.288zm28.797-4.496h-2.941v4.328h-3.646v-4.328h-2.932v11.262h2.932v-4.515h3.642v4.515h2.945V35.777zm-13.791 11.025a3.313 3.313 0 01-.286-.972c-.683.783-1.572 1.175-2.671 1.175-1.037 0-1.896-.306-2.58-.925-.684-.616-1.023-1.394-1.023-2.328 0-1.153.415-2.035 1.245-2.65.84-.615 2.039-.925 3.612-.933h1.3v-.624c0-.504-.126-.904-.377-1.205-.252-.301-.646-.452-1.188-.452-.478 0-.851.117-1.12.353-.268.233-.406.555-.406.964h-2.827c0-.628.188-1.213.566-1.747.377-.533.914-.955 1.606-1.26.693-.306 1.468-.456 2.328-.456 1.305 0 2.341.335 3.108 1.01.768.672 1.15 1.618 1.15 2.836v4.706c.008 1.028.147 1.811.419 2.336v.172h-2.856zm-2.341-2.017a2.41 2.41 0 001.154-.284c.352-.19.612-.448.784-.766v-1.871h-1.057c-1.413 0-2.168.503-2.26 1.505l-.01.172c0 .362.127.659.374.895.248.233.587.349 1.015.349zm20.856-2.169h1.527c.209 1.351.746 2.418 1.619 3.197.872.778 1.967 1.17 3.292 1.17 1.431 0 2.597-.447 3.499-1.347.901-.895 1.409-2.112 1.51-3.652l.021-.744c0-1.665-.453-3.003-1.359-4.01-.906-1.006-2.123-1.51-3.65-1.51-1.375 0-2.504.409-3.38 1.226-.877.818-1.406 1.923-1.582 3.321h-1.497v-4.345h-2.836v10.859h2.836v-4.165zm4.266-1.376c0-1.028.188-1.82.566-2.362.377-.547.919-.818 1.623-.818.697 0 1.238.271 1.615.814.378.541.566 1.402.566 2.58 0 1.012-.193 1.795-.579 2.35-.385.554-.927.834-1.623.834-.692 0-1.225-.275-1.606-.83-.374-.555-.562-1.411-.562-2.568z" fill="#FF8A00"/></svg>