<svg width="144" height="70" viewBox="0 0 144 70" fill="none" xmlns="http://www.w3.org/2000/svg">
<path d="M31.2924 14.9095C31.8057 15.5759 32.4845 16.0729 33.2668 16.3444C33.8298 16.5397 34.4423 16.6161 35.0342 16.5611L35.5183 16.5145L35.6758 16.0433C36.1436 14.6338 35.8909 13.0928 34.9928 11.9253C34.1111 10.7791 32.6624 10.1424 31.2509 10.2781L30.7667 10.3247L30.6093 10.7959C30.1417 12.201 30.3941 13.7378 31.2924 14.9095ZM33.8134 12.8759C34.2851 13.4913 34.4839 14.264 34.3762 15.0197C33.6312 14.9435 32.9357 14.5569 32.472 13.9541C32.0002 13.3386 31.8014 12.5661 31.9091 11.806C32.6542 11.8825 33.3497 12.269 33.8134 12.8759Z" fill="#FF8A00"/>
<path d="M37.1061 14.1242C37.247 14.2093 37.4001 14.2813 37.5574 14.3323C38.3853 14.621 39.3497 14.4556 40.1983 13.8781L40.5087 13.6659L40.5336 13.2837C40.6165 12.0272 40.1195 10.9574 39.2089 10.4138C38.3107 9.87899 37.1268 9.97242 36.1212 10.6559L35.8106 10.8682L35.7859 11.2503C35.703 12.5066 36.1955 13.5808 37.1061 14.1242ZM38.4514 11.7511C38.7701 11.942 38.9728 12.3157 39.0226 12.7869C38.6004 12.9738 38.1824 12.9822 37.8634 12.7911C37.5449 12.6002 37.342 12.2265 37.2924 11.7553C37.7105 11.5684 38.1328 11.5598 38.4514 11.7511Z" fill="#FF8A00"/>
<path d="M43.0553 15.5677C43.25 15.6782 43.4609 15.7716 43.6722 15.8436C44.6905 16.2004 45.8203 16.0985 46.7684 15.5721L47.1949 15.3344L47.1576 14.8376C47.0583 13.4835 46.3047 12.2907 45.146 11.641C43.9993 11 42.5795 11 41.4372 11.6366L41.0107 11.8743L41.048 12.3711C41.143 13.7252 41.8964 14.9181 43.0553 15.5677ZM44.4253 12.9949C44.9801 13.3048 45.3814 13.8184 45.5597 14.4215C44.9677 14.5913 44.3222 14.5193 43.7756 14.2176C43.221 13.9079 42.8197 13.3941 42.6414 12.791C43.2293 12.6172 43.8791 12.6852 44.4253 12.9949Z" fill="#FF8A00"/>
<path d="M45.8503 17.0917C44.418 17.3802 43.2341 18.3866 42.692 19.779L42.5098 20.2418L42.8492 20.5985C43.3211 21.0995 43.9129 21.4859 44.5589 21.7107C45.2666 21.9568 46.0282 22.0076 46.765 21.8594C48.2013 21.5707 49.3809 20.5643 49.9232 19.1719L50.1055 18.7092L49.766 18.3524C48.7725 17.2996 47.2577 16.8072 45.8503 17.0917ZM46.4753 20.3478C45.7303 20.5005 44.9398 20.3222 44.3273 19.8766C44.7329 19.2186 45.3829 18.7558 46.1442 18.6029C46.8894 18.4543 47.6799 18.6285 48.2967 19.0741C47.8826 19.7322 47.2326 20.1949 46.4753 20.3478Z" fill="#FF8A00"/>
<path d="M50.3806 17.7709C50.6166 17.8515 50.8568 17.9154 51.101 17.9534L51.5813 18.0298L51.846 17.6096C52.645 16.3529 52.7648 14.7821 52.1689 13.4108C51.5813 12.0649 50.3272 11.0845 48.9072 10.855L48.4269 10.7786L48.162 11.1989C47.3632 12.4554 47.2432 14.0264 47.8391 15.3976C48.3233 16.5144 49.2507 17.3761 50.3806 17.7709ZM49.1801 12.5108C49.9087 12.7742 50.4799 13.3176 50.7943 14.0434C51.1088 14.7693 51.1174 15.5802 50.8275 16.2977C50.0989 16.0346 49.5277 15.491 49.2133 14.7653C48.8986 14.0437 48.8904 13.2325 49.1801 12.5108Z" fill="#FF8A00"/>
<path d="M62.0197 18.2932L51.8828 18.9003L51.9696 20.4415L62.1067 19.8342C62.5909 19.8046 63.0378 19.5837 63.3609 19.2102C63.6837 18.8364 63.8494 18.3569 63.8203 17.8559C63.7623 16.8285 62.8972 16.0387 61.8955 16.0984L52.8225 16.6374L52.9093 18.1784L61.9784 17.635C62.1522 17.6266 62.3055 17.7622 62.3137 17.9447C62.3303 18.1276 62.1937 18.2804 62.0197 18.2932Z" fill="#FF8A00"/>
<path d="M39.3108 15.0328C37.8579 15.0158 36.517 15.75 35.7138 16.9897L35.4448 17.4057L35.7056 17.826C36.2271 18.671 37.0179 19.3118 37.9367 19.6303C38.363 19.779 38.8101 19.8554 39.2613 19.8596C40.7099 19.8769 42.0552 19.1424 42.8583 17.9027L43.1275 17.4867L42.8665 17.0664C42.1049 15.8311 40.7433 15.0498 39.3108 15.0328ZM39.2779 18.3228C38.5247 18.3144 37.8002 17.9833 37.2953 17.4271C37.8168 16.8797 38.5329 16.5654 39.2988 16.5738C40.0519 16.5822 40.7765 16.9135 41.2813 17.4697C40.7556 18.0175 40.0395 18.3317 39.2779 18.3228Z" fill="#FF8A00"/>
<path d="M50.9322 60.1312L54.0946 47.6371C54.1028 47.6161 54.1111 47.5989 54.1193 47.5779C54.4753 46.4869 53.3123 45.4467 51.9337 44.636L58.9828 29.5945C59.0532 29.5011 59.1029 29.3906 59.1402 29.276C59.227 29.0171 59.3138 28.7412 58.9703 28.325L60.0174 25.158C60.4355 23.8887 59.7732 22.5087 58.5359 22.0802C57.2983 21.6514 55.9528 22.3307 55.5305 23.5998L54.7937 25.8288C53.9908 25.4551 53.047 25.0347 51.9335 24.5635C52.2979 23.812 52.4549 22.9589 52.3556 22.0928L52.2979 21.5962L51.8342 21.4475C50.4394 20.9976 48.9326 21.2989 47.8067 22.2582C46.8217 23.0946 46.2626 24.3342 46.2587 25.6376C45.7289 25.4763 45.1907 25.3064 44.632 25.1282C44.8887 23.9775 44.6611 22.8655 43.9781 22.0758C43.1504 21.1164 41.809 20.7767 40.3934 21.1716L40.0333 21.2735L39.8924 21.6258C39.6482 22.2412 39.5489 22.8655 39.5861 23.4555C39.2551 23.3409 38.9241 23.2304 38.5844 23.1116C38.4563 23.065 38.332 23.0225 38.2038 22.9799L38.2327 22.6444C38.3488 21.3921 37.8808 20.3053 36.9827 19.7365C36.1011 19.176 34.9129 19.2397 33.8905 19.8935L33.576 20.0974L33.5431 20.4793C33.5183 20.7639 33.5265 21.0398 33.5556 21.3029C32.4255 20.8827 31.3536 20.4707 30.3518 20.0804C31.366 20.1908 32.4007 19.9317 33.2534 19.3205L33.6508 19.036L33.5597 18.5436C33.2866 17.0788 32.3223 15.8731 30.981 15.3085C29.6316 14.7439 28.1126 14.9308 26.9329 15.7755L26.8253 15.8517C25.7863 15.5674 24.8839 15.3381 24.0975 15.1513L24.8345 12.9182C25.2524 11.6489 24.5903 10.2689 23.3527 9.84039C22.1152 9.41162 20.7697 10.0909 20.3476 11.36L19.3043 14.5148C18.7911 14.6337 18.6999 14.9012 18.6174 15.1601C18.5884 15.2493 18.5677 15.3383 18.5552 15.4278L16.2828 26.5759L15.8979 26.3042C15.1695 25.7948 14.1843 25.9775 13.6463 26.7202L12.0112 28.9831C11.7545 29.3354 11.6552 29.777 11.7297 30.2183C11.804 30.6685 12.0568 31.0761 12.4251 31.3306L14.9543 33.1009L14.6685 34.5102C14.6685 34.5186 14.6644 34.5274 14.6644 34.5358L13.7041 39.2523C13.0997 42.7548 23.8948 47.5053 29.8222 49.5685C31.9497 50.3116 34.0481 50.9398 36.0684 51.4576C36.3249 51.984 36.6727 52.4596 37.103 52.8714L36.2502 54.9644C36.13 55.2321 36.035 55.6651 36.2626 56.1955C37.1194 58.2079 42.5665 60.131 42.7281 60.1862H42.7324C43.4855 60.4451 50.1252 62.6272 50.9486 60.1226L50.9322 60.1312ZM47.3022 46.1896L47.1904 46.1514C44.5124 45.2174 42.9932 44.1434 42.5876 43.6296C43.2292 43.4641 45.1168 43.549 47.8611 44.4913L47.9727 44.5295C50.6509 45.4635 52.17 46.5375 52.5755 47.0511C51.938 47.217 50.0506 47.1319 47.3022 46.1896ZM22.3883 30.851L22.9056 28.6179C24.0439 29.2462 25.2775 29.8618 26.5358 30.452L25.7617 33.2115L22.3883 30.851ZM18.522 23.1796L18.5139 23.1752L18.8987 21.2903C21.9246 24.5251 30.8778 28.2822 36.2547 30.1545C41.6232 32.0224 50.924 34.6249 55.2578 33.9712L54.4508 35.6947L54.4092 35.6777C54.1111 36.5734 47.3145 36.5394 35.4763 32.4174C23.6381 28.2952 18.2283 24.0754 18.522 23.1796ZM23.6256 18.9129C23.3566 20.0422 23.0833 21.2138 22.802 22.4027C20.4135 20.9211 19.2505 19.7833 19.3581 19.3077L19.3043 19.2907L19.7846 16.9344C20.5545 17.4356 21.7589 18.0682 23.6256 18.9129ZM29.102 21.2224C28.7542 22.4917 28.3859 23.8165 28.0092 25.175C26.5438 24.4873 25.2605 23.8251 24.1638 23.2052C24.4576 21.9529 24.7473 20.7258 25.029 19.5374C26.2666 20.072 27.6366 20.6408 29.102 21.2224ZM33.3281 27.4419C31.9125 26.8901 30.6006 26.3466 29.396 25.8116C29.7811 24.4277 30.1578 23.0778 30.5136 21.7787C31.8216 22.2881 33.2002 22.8019 34.6197 23.3199C34.2056 24.6444 33.7752 26.0241 33.3281 27.4419ZM45.7748 27.0939C45.2863 28.3464 44.773 29.6497 44.2473 30.9869C42.9766 30.6601 41.6189 30.278 40.1784 29.828C40.6669 28.4271 41.1429 27.0641 41.6023 25.7524C43.0386 26.2276 44.4338 26.6778 45.7748 27.0939ZM57.1452 29.9508L56.131 32.1159L56.1019 32.1075C55.9031 32.5533 54.3013 32.7273 51.5197 32.4088C52.0039 31.2968 52.4801 30.1969 52.9395 29.1271C54.9141 29.6155 56.2429 29.866 57.1452 29.9508ZM49.9636 32.1969C48.7218 32.0017 47.3022 31.7257 45.7291 31.352C46.2424 30.0403 46.7474 28.7624 47.2232 27.5353C48.7341 27.9895 50.1579 28.397 51.4577 28.7452C50.9737 29.866 50.4728 31.0209 49.9636 32.1969ZM50.949 42.9971C50.9199 43.0862 50.5805 43.3537 49.5044 43.4599C49.045 43.273 48.6681 43.1374 48.4573 43.065L48.3371 43.0226C48.1715 42.9673 47.6914 42.8059 47.0498 42.632L49.2975 37.491C50.9531 37.6949 52.4349 37.7457 53.5733 37.5672L51.0192 43.0226L50.949 42.9971ZM27.0654 34.1285L27.9222 31.0845C29.2011 31.6491 30.4804 32.1797 31.693 32.6593L30.4804 36.5226L27.0654 34.1285ZM31.7759 37.427L33.1046 33.1985C33.7669 33.449 34.4044 33.6783 34.9921 33.882C35.5965 34.0901 36.2504 34.3107 36.9417 34.5358L35.1205 39.7703L31.7759 37.427ZM38.382 34.986C39.6113 35.3598 40.915 35.7331 42.2439 36.077L39.8474 42.1478C39.1394 41.9697 38.4192 41.7743 37.6865 41.5662L36.4033 40.6704L38.382 34.986ZM41.4369 42.5255C41.3996 42.5171 41.3623 42.5085 41.329 42.5001L43.7214 36.4422C45.0914 36.7691 46.4575 37.0536 47.753 37.2657L45.5594 42.2795C44.0156 41.9737 42.2564 41.8381 41.4369 42.5255ZM56.9589 24.0924C57.1122 23.6296 57.6048 23.3835 58.0558 23.5405C58.5068 23.6976 58.7512 24.2028 58.5981 24.6654L57.7122 27.3442C57.3067 27.0979 56.8016 26.8134 56.1682 26.4953L56.9589 24.0924ZM48.7674 23.4385C49.3636 22.9331 50.1252 22.7084 50.8783 22.8014C50.8288 23.5786 50.4728 24.3002 49.8725 24.8094C49.2805 25.3104 48.5191 25.5355 47.7616 25.4465C47.8196 24.6698 48.1756 23.9437 48.7674 23.4385ZM50.8329 25.9985C50.8951 25.9477 50.9447 25.8925 51.0028 25.8372C53.6517 26.9537 55.2744 27.7434 56.2595 28.2782C54.8275 28.0233 52.6089 27.4885 49.7362 26.6692C50.1293 26.4995 50.5016 26.2828 50.8329 25.9985ZM41.1676 22.5724C41.8672 22.4705 42.4799 22.6574 42.8564 23.0904C43.1918 23.4769 43.3035 24.0415 43.1961 24.657C42.5667 24.4531 41.921 24.2368 41.263 24.0161C41.0684 23.6126 41.027 23.1076 41.1676 22.5724ZM40.1745 25.2726C39.7108 26.5929 39.2348 27.9641 38.7423 29.3694C38.0884 29.1571 37.422 28.932 36.7431 28.6944C36.0561 28.4567 35.3897 28.2146 34.744 27.9771C35.1909 26.5505 35.6255 25.1624 36.0395 23.8293C36.7184 24.0714 37.4095 24.3175 38.105 24.5593C38.7959 24.8054 39.4873 25.0431 40.1745 25.2726ZM35.0376 21.0102C35.464 20.8361 35.8862 20.8405 36.1965 21.04C36.511 21.2397 36.7016 21.6174 36.7429 22.0886C36.5069 22.1862 36.2749 22.22 36.0598 22.2074C35.8862 22.1438 35.704 22.0802 35.5342 22.0166C35.2527 21.8083 35.0748 21.4515 35.0376 21.0102ZM21.4899 16.1663C22.6243 16.3657 24.3749 16.7605 26.9084 17.4612C27.2022 18.1656 27.6702 18.7773 28.2659 19.2313C25.1778 17.9662 22.8763 16.9092 21.4899 16.1663ZM30.4182 16.7267C31.1259 17.0198 31.6682 17.5926 31.9413 18.3059C31.2625 18.6158 30.4802 18.6414 29.7766 18.3441C29.0686 18.0512 28.5263 17.4782 28.2534 16.7649C28.9321 16.4548 29.7104 16.4294 30.4182 16.7267ZM21.7839 11.8402C21.9371 11.3774 22.4296 11.1313 22.8806 11.2884C23.3316 11.4454 23.5761 11.9506 23.4229 12.4132L22.6239 14.8077C21.9328 14.6679 21.3614 14.5745 20.8938 14.5192L21.7839 11.8402ZM18.0956 25.226C18.8985 26.0749 20.1031 26.9581 21.5393 27.8284L21.0551 29.9212L17.6278 27.5227L18.0956 25.226ZM23.3814 41.6978C23.0751 42.7972 22.777 43.8671 22.4914 44.9073C21.3573 44.3511 20.3515 43.8162 19.4824 43.3027C19.7307 42.254 19.9832 41.1756 20.2399 40.0804C21.2334 40.6366 22.2972 41.18 23.3814 41.6978ZM24.7682 42.3391C25.9312 42.8611 27.0945 43.3495 28.1994 43.7866C27.856 44.8777 27.5248 45.9391 27.2058 46.9707C26.0057 46.4995 24.8961 46.0283 23.8778 45.5613C24.1638 44.5167 24.4619 43.4385 24.7682 42.3391ZM16.1421 34.8119L16.2953 34.052L27.376 41.8127C19.9086 38.7305 16.1585 35.7969 16.1421 34.8119ZM15.1609 39.6218L15.7321 36.8283C16.4852 37.635 17.5824 38.4628 18.886 39.2737C18.6338 40.3603 18.381 41.4259 18.1368 42.4661C16.1585 41.1714 15.1691 40.1398 15.1609 39.6218ZM28.6176 47.5097C28.9364 46.4823 29.2717 45.4167 29.6112 44.3301C30.2114 44.5549 30.791 44.7672 31.3247 44.9541C31.6725 45.0774 32.0201 45.192 32.3637 45.3064L33.026 45.7692C32.6781 46.7668 32.3346 47.7434 32.0036 48.6902C31.4365 48.5075 30.8694 48.3164 30.2982 48.1171C29.7229 47.9131 29.164 47.7136 28.6176 47.5097ZM34.2512 46.8388C34.9467 47.6455 35.4061 48.6515 35.5549 49.7386C34.8595 49.5517 34.1601 49.3522 33.4481 49.1401C33.7089 48.3928 33.9779 47.6245 34.2512 46.8388ZM37.0492 49.5689C36.7925 47.5777 35.7162 45.7862 34.102 44.6568L33.0589 43.9267L33.0632 43.9183C33.055 43.9141 33.0464 43.9141 33.0382 43.9099L13.2735 30.0657C13.2404 30.0445 13.2195 30.0063 13.2113 29.9678C13.2072 29.9424 13.2113 29.9212 13.2195 29.9086L14.8546 27.6457C14.9001 27.5821 14.983 27.5439 15.0493 27.5865L40.2159 45.209L37.7324 51.3222C37.3682 50.8212 37.1362 50.2352 37.0492 49.5689ZM37.6329 55.5758L41.7888 45.3491L41.9376 45.1282C42.5585 45.6758 43.3946 46.164 44.206 46.5675C43.6016 48.2828 42.9684 50.0911 42.3307 51.9038C41.6602 53.8184 40.9897 55.7205 40.3563 57.5248C38.949 56.8113 37.7365 56.026 37.6329 55.5758ZM43.2042 58.7345C42.753 58.5858 42.2482 58.3863 41.7263 58.1657C42.3722 56.3315 43.0593 54.383 43.7466 52.4258C44.3714 50.6469 44.9925 48.8724 45.5883 47.187C46.081 47.3908 46.4866 47.5351 46.7102 47.6115L46.8303 47.6539C46.9916 47.7092 47.4637 47.8662 48.0929 48.0405C47.5714 49.764 47.0373 51.5387 46.4993 53.3132C45.899 55.2999 45.2947 57.2869 44.7194 59.1973C44.2391 59.0656 43.7341 58.9169 43.2042 58.7345ZM46.1887 59.5368C46.7558 57.6605 47.3436 55.7159 47.9313 53.7715C48.4818 51.9588 49.028 50.1503 49.5581 48.3928C50.4687 48.5753 51.4579 48.7026 52.2899 48.6347L49.5126 59.6048C49.1855 59.8171 47.9891 59.8807 46.1887 59.5368Z" fill="#FF8A00"/>
<path d="M112.481 24.3657L114.385 17.7864H117.339L113.196 30.0064L112.967 30.5637C112.35 31.9466 111.333 32.6382 109.919 32.6382C109.519 32.6382 109.11 32.5752 108.698 32.4537V30.3124L109.118 30.3208C109.641 30.3208 110.03 30.241 110.287 30.0776C110.544 29.9142 110.745 29.6459 110.892 29.2646L111.214 28.393L107.603 17.7864H110.565L112.481 24.3657Z" fill="#FF8A00"/>
<path d="M86.2666 23.3825C86.2666 24.458 86.468 25.4215 86.8748 26.2648C87.2775 27.108 87.8606 27.7619 88.6197 28.2222C89.379 28.6824 90.2598 28.9149 91.2666 28.9149C92.6968 28.9149 93.8629 28.4674 94.7647 27.5683C95.6665 26.6734 96.174 25.456 96.2748 23.9158L96.2957 23.1717C96.2957 21.5068 95.8426 20.1688 94.9367 19.162C94.0306 18.1554 92.8143 17.6521 91.2875 17.6521C89.7606 17.6521 88.5444 18.1554 87.6342 19.1578C86.724 20.1602 86.2709 21.5282 86.2709 23.2534V23.3825H86.2666ZM89.0979 23.1717C89.0979 22.1434 89.2867 21.3518 89.6642 20.8099C90.0417 20.2635 90.5828 19.9925 91.2875 19.9925C91.9713 19.9925 92.508 20.2635 92.8939 20.8013C93.2799 21.339 93.4729 22.1993 93.4729 23.3867C93.4729 24.3977 93.2799 25.1807 92.8939 25.7357C92.508 26.2862 91.967 26.5659 91.2666 26.5659C90.5744 26.5659 90.0417 26.2906 89.6601 25.7357C89.2867 25.1849 89.0979 24.3288 89.0979 23.1717Z" fill="#FF8A00"/>
<path d="M106.706 28.961H103.796V25.4545C103.253 25.5561 102.748 25.6092 102.278 25.6092C100.636 25.6092 99.398 25.251 98.566 24.5348C97.7338 23.8183 97.3112 22.7748 97.2983 21.3994V17.8001H100.204V21.3994C100.213 22.0451 100.364 22.5094 100.666 22.788C100.972 23.0666 101.506 23.2037 102.278 23.2037C102.761 23.2037 103.265 23.1462 103.796 23.0267V17.7957H106.702V28.961H106.706Z" fill="#FF8A00"/>
<path d="M79.7409 19.2481L82.2795 14.4619H85.4873L81.5462 21.3449L85.5909 28.342H82.3431L79.7409 23.4824L77.1387 28.3462H73.895L77.9397 21.3449L73.9986 14.4619H77.2064L79.7409 19.2481Z" fill="#FF8A00"/>
<path d="M123.097 28.8218V17.5635H127.68C129.177 17.5635 130.32 17.8356 131.12 18.3752C131.921 18.9151 132.316 19.6911 132.316 20.7036C132.316 21.2256 132.147 21.6895 131.816 22.1044C131.477 22.5191 130.99 22.8359 130.346 23.0589C131.129 23.2105 131.747 23.5137 132.199 23.9599C132.651 24.4059 132.873 24.959 132.873 25.6103C132.873 26.6585 132.49 27.4568 131.721 28.0055C130.955 28.5541 129.838 28.8263 128.376 28.8263H123.097V28.8218ZM126.028 24.1516V26.4176H128.389C129.424 26.4176 129.942 26.0475 129.942 25.3025C129.942 24.5487 129.451 24.165 128.463 24.1516H126.028ZM126.028 22.131H127.846C128.872 22.1176 129.39 21.7787 129.39 21.1095C129.39 20.6992 129.251 20.4092 128.968 20.2354C128.685 20.0659 128.255 19.9767 127.68 19.9767H126.028V22.131Z" fill="#FF8A00"/>
<path d="M93.7563 35.2768H87.7133V37.967H89.8897C91.4841 37.967 92.7437 38.3635 93.6767 39.1525C94.6094 39.9458 95.0758 41.0087 95.0758 42.3538C95.0758 43.7029 94.6133 44.7824 93.6845 45.6C92.7597 46.4176 91.5281 46.8306 89.9894 46.8428H84.895V32.9587H93.7563V35.2768ZM87.7133 40.2728V44.5453H89.9376C90.6511 44.5453 91.2171 44.3448 91.6436 43.9441C92.0702 43.5435 92.2815 43.0079 92.2815 42.3334C92.2815 41.7037 92.0782 41.205 91.6716 40.8411C91.265 40.4773 90.7069 40.2851 90.0013 40.2728H87.7133Z" fill="#FF8A00"/>
<path d="M116.51 35.7766H113.569V40.105H109.923V35.7766H106.991V47.0394H109.923V42.5237H113.565V47.0394H116.51V35.7766Z" fill="#FF8A00"/>
<path d="M102.719 46.8023C102.589 46.54 102.492 46.2173 102.433 45.8301C101.75 46.6131 100.861 47.0045 99.7616 47.0045C98.7255 47.0045 97.8657 46.6992 97.1821 46.0796C96.4983 45.4643 96.1587 44.6858 96.1587 43.7522C96.1587 42.5993 96.5739 41.7174 97.4044 41.1021C98.2432 40.4869 99.4429 40.1772 101.016 40.1686H102.316V39.5448C102.316 39.0414 102.19 38.6414 101.939 38.3403C101.687 38.039 101.293 37.8885 100.751 37.8885C100.273 37.8885 99.9 38.0046 99.6316 38.2412C99.3632 38.4737 99.2248 38.7962 99.2248 39.205H96.3976C96.3976 38.5768 96.5864 37.9918 96.9639 37.4582C97.3414 36.9249 97.8784 36.5033 98.5703 36.1978C99.2625 35.8925 100.038 35.7417 100.898 35.7417C102.203 35.7417 103.239 36.0774 104.006 36.7527C104.774 37.4238 105.156 38.3704 105.156 39.5878V44.2944C105.164 45.3224 105.303 46.1054 105.575 46.6303V46.8023H102.719ZM100.378 44.7847C100.793 44.7847 101.179 44.6902 101.532 44.5008C101.884 44.3116 102.144 44.0533 102.316 43.735V41.8637H101.259C99.8456 41.8637 99.0905 42.367 98.9982 43.3694L98.9898 43.5414C98.9898 43.9028 99.1157 44.1997 99.3632 44.4363C99.6108 44.6685 99.9504 44.7847 100.378 44.7847Z" fill="#FF8A00"/>
<path d="M121.234 42.6164H122.761C122.97 43.9671 123.507 45.034 124.38 45.8128C125.252 46.5914 126.347 46.983 127.672 46.983C129.103 46.983 130.269 46.5355 131.171 45.6364C132.072 44.7415 132.58 43.5241 132.681 41.9839L132.702 41.2396C132.702 39.5747 132.249 38.2367 131.343 37.2301C130.437 36.2235 129.22 35.7202 127.693 35.7202C126.318 35.7202 125.189 36.1288 124.313 36.9462C123.436 37.7637 122.907 38.8692 122.731 40.2674H121.234V35.9224H118.398V46.7808H121.234V42.6164ZM125.5 41.2396C125.5 40.2116 125.688 39.4199 126.066 38.8778C126.443 38.3314 126.985 38.0604 127.689 38.0604C128.386 38.0604 128.927 38.3314 129.304 38.8736C129.682 39.4155 129.87 40.276 129.87 41.4548C129.87 42.4658 129.677 43.2486 129.291 43.8036C128.906 44.3585 128.364 44.6382 127.668 44.6382C126.976 44.6382 126.443 44.3629 126.062 43.808C125.688 43.253 125.5 42.397 125.5 41.2396Z" fill="#FF8A00"/>
</svg>
