<svg width="47" height="26" viewBox="0 0 47 26" fill="none" xmlns="http://www.w3.org/2000/svg"><path d="M30.248 7.764l1.493-5.158h2.316l-3.248 9.58-.18.437c-.483 1.084-1.28 1.626-2.39 1.626a3.4 3.4 0 01-.957-.145v-1.678l.33.006c.41 0 .714-.062.916-.19.202-.129.359-.339.474-.638l.253-.683-2.831-8.315h2.322l1.502 5.158zm-20.55-.771c0 .843.158 1.598.477 2.26a3.524 3.524 0 001.368 1.534c.595.36 1.286.543 2.075.543 1.121 0 2.035-.35 2.742-1.056.707-.701 1.105-1.656 1.184-2.863l.016-.583c0-1.305-.355-2.354-1.065-3.144-.71-.789-1.664-1.183-2.86-1.183-1.198 0-2.151.394-2.865 1.18-.713.786-1.068 1.858-1.068 3.21v.102h-.004zm2.22-.165c0-.806.148-1.427.444-1.852.296-.428.72-.64 1.272-.64.536 0 .957.212 1.26.633.302.422.453 1.096.453 2.027 0 .793-.15 1.407-.453 1.842-.303.431-.727.65-1.276.65-.543 0-.96-.215-1.26-.65-.292-.432-.44-1.103-.44-2.01zm13.803 4.538H23.44V8.617c-.426.08-.822.121-1.19.121-1.288 0-2.258-.28-2.91-.842-.652-.561-.984-1.38-.994-2.458V2.617h2.278v2.821c.007.507.125.87.362 1.089.24.218.659.326 1.264.326a5.39 5.39 0 001.19-.139v-4.1h2.278v8.752h.003zM4.583 3.752L6.573 0h2.514l-3.09 5.396L9.17 10.88H6.623l-2.04-3.81-2.04 3.813H0l3.17-5.488L.082 0h2.515l1.987 3.752zm33.987 7.505V2.431h3.594c1.172 0 2.07.214 2.696.637.628.423.938 1.031.938 1.825 0 .41-.133.773-.392 1.098-.266.325-.648.574-1.152.748.613.12 1.097.357 1.452.707.354.35.528.783.528 1.293 0 .822-.3 1.448-.903 1.878-.6.43-1.476.643-2.622.643H38.57v-.003zm2.298-3.661v1.776h1.851c.812 0 1.217-.29 1.217-.874 0-.59-.385-.891-1.159-.902h-1.909zm0-1.584h1.425c.805-.01 1.21-.276 1.21-.8 0-.322-.109-.55-.33-.686-.222-.133-.56-.203-1.01-.203h-1.295v1.689zM15.57 16.317h-4.738v2.11h1.707c1.25 0 2.237.31 2.968.928.731.622 1.097 1.456 1.097 2.51 0 1.058-.363 1.904-1.09 2.545-.726.64-1.691.965-2.897.974H8.623V14.5h6.947v1.817zm-4.738 3.917v3.349h1.744c.56 0 1.003-.157 1.337-.471.335-.314.5-.734.5-1.263 0-.494-.159-.884-.478-1.17-.318-.285-.756-.436-1.31-.445h-1.793zm22.575-3.525H31.1v3.393h-2.858V16.71h-2.299v8.83h2.299V22h2.855v3.54h2.309v-8.83zm-10.811 8.643a2.585 2.585 0 01-.224-.762c-.536.614-1.233.92-2.095.92-.812 0-1.486-.239-2.022-.724-.536-.483-.802-1.093-.802-1.825 0-.904.326-1.595.977-2.077.657-.483 1.598-.725 2.83-.732h1.02v-.49c0-.394-.099-.707-.296-.943-.197-.236-.506-.355-.93-.355-.375 0-.668.092-.878.277-.21.182-.32.435-.32.756H17.64c0-.493.148-.951.444-1.37.296-.418.717-.748 1.26-.988.542-.24 1.15-.357 1.825-.357 1.022 0 1.834.263 2.436.792.602.526.901 1.268.901 2.223v3.69c.007.805.115 1.419.329 1.83v.135h-2.24zm-1.835-1.581c.325 0 .628-.075.904-.223.276-.148.48-.35.615-.6V21.48h-.829c-1.108 0-1.7.394-1.772 1.18l-.006.135a.93.93 0 00.292.701c.194.183.46.274.796.274zM37.11 22.07h1.197c.164 1.06.585 1.896 1.269 2.507.684.61 1.542.917 2.581.917 1.122 0 2.036-.35 2.743-1.056.706-.701 1.104-1.656 1.183-2.863l.017-.584c0-1.305-.355-2.353-1.066-3.142-.71-.79-1.663-1.184-2.86-1.184-1.079 0-1.963.32-2.65.96-.688.642-1.102 1.508-1.24 2.604H37.11v-3.406h-2.223v8.512h2.223v-3.264zm3.344-1.079c0-.805.148-1.426.444-1.85.296-.43.72-.642 1.272-.642.546 0 .97.213 1.266.638.296.425.444 1.1.444 2.023 0 .793-.151 1.407-.454 1.841-.302.436-.726.655-1.272.655-.543 0-.96-.216-1.26-.651-.292-.435-.44-1.106-.44-2.014z" fill="#FF8A00"/></svg>