<svg width="30" height="30" viewBox="0 0 30 30" fill="none" xmlns="http://www.w3.org/2000/svg"><path fill-rule="evenodd" clip-rule="evenodd" d="M4.5 7.5A1.5 1.5 0 016 6h18a1.5 1.5 0 010 3H6a1.5 1.5 0 01-1.5-1.5zm0 7.5A1.5 1.5 0 016 13.5h18a1.5 1.5 0 110 3H6A1.5 1.5 0 014.5 15zm0 7.5A1.5 1.5 0 016 21h18a1.5 1.5 0 110 3H6a1.5 1.5 0 01-1.5-1.5z" fill="#2F2F2F"/></svg>96 24.3978 9 24 9H6C5.60218 9 5.22064 8.84196 4.93934 8.56066C4.65804 8.27936 4.5 7.89782 4.5 7.5Z" fill="#2F2F2F"/>
<path fill-rule="evenodd" clip-rule="evenodd" d="M4.5 15C4.5 14.6022 4.65804 14.2206 4.93934 13.9393C5.22064 13.658 5.60218 13.5 6 13.5H24C24.3978 13.5 24.7794 13.658 25.0607 13.9393C25.342 14.2206 25.5 14.6022 25.5 15C25.5 15.3978 25.342 15.7794 25.0607 16.0607C24.7794 16.342 24.3978 16.5 24 16.5H6C5.60218 16.5 5.22064 16.342 4.93934 16.0607C4.65804 15.7794 4.5 15.3978 4.5 15Z" fill="#2F2F2F"/>
<path fill-rule="evenodd" clip-rule="evenodd" d="M4.5 22.5C4.5 22.1022 4.65804 21.7206 4.93934 21.4393C5.22064 21.158 5.60218 21 6 21H24C24.3978 21 24.7794 21.158 25.0607 21.4393C25.342 21.7206 25.5 22.1022 25.5 22.5C25.5 22.8978 25.342 23.2794 25.0607 23.5607C24.7794 23.842 24.3978 24 24 24H6C5.60218 24 5.22064 23.842 4.93934 23.5607C4.65804 23.2794 4.5 22.8978 4.5 22.5Z" fill="#2F2F2F"/>
</svg>
