<svg width="61" height="60" viewBox="0 0 61 60" fill="none" xmlns="http://www.w3.org/2000/svg"><path d="M55.03 7.407a3.368 3.368 0 00-.993-2.414A3.376 3.376 0 0051.622 4a3.416 3.416 0 00-2.415 1.007c-.273.273-.77.864-1.043 1.192a.81.81 0 101.247 1.035c.426-.513.779-.918.942-1.081a1.804 1.804 0 011.276-.533h.007a1.764 1.764 0 011.772 1.779c-.002.48-.191.932-.533 1.274-.306.306-1.357 1.14-2.864 2.192a5.135 5.135 0 00-4.433-2.55H33.71a5.96 5.96 0 00-4.241 1.756L5.746 33.783a2.52 2.52 0 00-.744 1.795c0 .678.265 1.315.744 1.795L21.64 53.259a2.532 2.532 0 001.796.742c.65 0 1.3-.248 1.796-.742l23.723-23.711a5.954 5.954 0 001.756-4.239V13.447c0-.35-.035-.692-.103-1.022 1.715-1.18 2.974-2.166 3.413-2.605a3.412 3.412 0 001.008-2.413zm-5.94 17.902a4.345 4.345 0 01-1.282 3.093L24.085 52.113a.92.92 0 01-1.299 0L6.893 36.227a.912.912 0 01-.27-.65.91.91 0 01.27-.648l23.722-23.71a4.35 4.35 0 013.095-1.282h11.868c1.333 0 2.494.746 3.09 1.842a65.76 65.76 0 01-3.167 1.97 3.41 3.41 0 00-4.923-.115 3.405 3.405 0 000 4.811 3.394 3.394 0 002.406.995 3.39 3.39 0 002.407-.995 3.402 3.402 0 00.883-3.273 68.163 68.163 0 002.816-1.733v11.87h0zm-6.83-8.905a.81.81 0 001.089.36 53.1 53.1 0 001.417-.743c.005.463-.168.927-.52 1.279a1.784 1.784 0 11-1.26-3.042c.36 0 .72.111 1.028.329-.459.249-.924.493-1.393.729a.81.81 0 00-.36 1.088z" fill="#FF8A00" stroke="#FF8A00" stroke-width=".4"/><path d="M29.016 21c-.553 0-1 .349-1 .779V38.22c0 .43.447.779 1 .779.552 0 1-.349 1-.779V21.78c0-.43-.448-.779-1-.779zm-3.882 6.024c-1.17-1.365-3.075-1.365-4.245 0s-1.17 3.587 0 4.952c.585.683 1.354 1.024 2.123 1.024.768 0 1.537-.341 2.122-1.024.568-.661.88-1.54.88-2.476 0-.935-.312-1.815-.88-2.476zm-1.01 3.773c-.614.715-1.611.715-2.224 0-.613-.715-.613-1.879 0-2.594a1.46 1.46 0 011.112-.536c.402 0 .805.178 1.112.536.297.346.46.807.46 1.297 0 .49-.163.95-.46 1.297zm13.872-3.773a3.509 3.509 0 00-4.954 0 3.504 3.504 0 000 4.952A3.494 3.494 0 0035.519 33c.897 0 1.794-.341 2.477-1.024a3.504 3.504 0 000-4.952zm-1.18 3.773a1.836 1.836 0 110-2.594 1.835 1.835 0 010 2.594z" fill="#FF8A00" stroke="#FF8A00" stroke-width=".4"/></svg>6.8497 42.9853 16.8497C43.1077 16.8497 43.2321 16.8219 43.349 16.7631C43.824 16.5242 44.2974 16.2757 44.7661 16.0212C44.7708 16.4837 44.5979 16.9475 44.2456 17.2997C43.5503 17.9945 42.4192 17.9945 41.7239 17.2997C41.0287 16.6048 41.0287 15.4743 41.7239 14.7793C42.0715 14.4319 42.5281 14.2582 42.9847 14.2582C43.3462 14.2582 43.7067 14.369 44.0142 14.5866C43.5554 14.8359 43.0899 15.0799 42.6206 15.316C42.2204 15.5168 42.0593 16.0039 42.2606 16.4035Z" fill="#FF8A00" stroke="#FF8A00" stroke-width="0.4"/>
<path d="M29.0157 21C28.4631 21 28.0151 21.3485 28.0151 21.7786V38.2214C28.0151 38.6514 28.4631 39 29.0157 39C29.5682 39 30.0162 38.6514 30.0162 38.2214V21.7786C30.0162 21.3485 29.5682 21 29.0157 21Z" fill="#FF8A00" stroke="#FF8A00" stroke-width="0.4"/>
<path d="M25.1344 27.0241C23.9639 25.6586 22.0592 25.6587 20.8887 27.024C19.7181 28.3893 19.7181 30.6108 20.8887 31.9761C21.4741 32.6589 22.2428 33.0001 23.0117 33C23.7804 33 24.5493 32.6586 25.1345 31.9761C25.7017 31.3147 26.014 30.4354 26.014 29.5001C26.014 28.5647 25.7016 27.6854 25.1344 27.0241ZM24.1236 30.7969C23.5104 31.5122 22.5128 31.5121 21.8996 30.7969C21.2865 30.0817 21.2865 28.9182 21.8996 28.203C22.2063 27.8454 22.609 27.6667 23.0117 27.6667C23.4144 27.6667 23.8171 27.8454 24.1237 28.203C24.4207 28.5494 24.5843 29.01 24.5843 29.5C24.5842 29.9899 24.4207 30.4505 24.1236 30.7969Z" fill="#FF8A00" stroke="#FF8A00" stroke-width="0.4"/>
<path d="M37.9963 27.024C36.6302 25.6586 34.4074 25.6587 33.0416 27.024C31.6756 28.3893 31.6756 30.6108 33.0416 31.9761C33.7247 32.6588 34.6218 33 35.5191 33C36.4162 33 37.3134 32.6588 37.9964 31.9761C39.3623 30.6108 39.3623 28.3893 37.9963 27.024ZM36.8165 30.7969C36.1009 31.5122 34.9368 31.5121 34.2213 30.7969C33.5058 30.0817 33.5058 28.9182 34.2213 28.203C34.5791 27.8454 35.049 27.6667 35.519 27.6667C35.9889 27.6667 36.4588 27.8454 36.8167 28.203C37.5322 28.9182 37.5322 30.0817 36.8165 30.7969Z" fill="#FF8A00" stroke="#FF8A00" stroke-width="0.4"/>
</svg>
