<svg width="61" height="60" viewBox="0 0 61 60" fill="none" xmlns="http://www.w3.org/2000/svg"><path d="M45.125 38c0-2.206-1.642-4-3.662-4h-6.41v-8.5c0-2.481-1.848-4.5-4.12-4.5-2.27 0-4.12 2.019-4.12 4.5v4.086L22.774 34H3.922c-.505 0-.915.448-.915 1v24c0 .552.41 1 .916 1h37.539c2.02 0 3.662-1.794 3.662-4 0-1.2-.496-2.266-1.265-3a4.137 4.137 0 001.265-3c0-1.2-.496-2.266-1.265-3a4.137 4.137 0 001.265-3c0-1.2-.496-2.266-1.265-3a4.137 4.137 0 001.265-3zM4.84 36h5.494v22H4.839V36zm12.819 22h-5.494V36h5.494v22zm23.805-16c1.01 0 1.831.897 1.831 2s-.821 2-1.831 2h-4.578v2h4.578c1.01 0 1.831.897 1.831 2s-.821 2-1.831 2h-4.578v2h4.578c1.01 0 1.831.897 1.831 2s-.821 2-1.831 2H19.489V36h3.662a.875.875 0 00.648-.293l4.578-5c.172-.187.268-.442.268-.707v-4.5c0-1.378 1.026-2.5 2.289-2.5 1.262 0 2.289 1.122 2.289 2.5V35c0 .552.41 1 .915 1h7.325c1.01 0 1.831.897 1.831 2s-.821 2-1.831 2h-4.578v2h4.578zM24.761 12.834l-1.036 5.985c-.064.373.077.751.367.98a.921.921 0 001.002.096l5.49-2.86 5.489 2.86c.135.07.28.105.427.105a.93.93 0 00.575-.202c.29-.228.432-.606.368-.98l-1.037-5.985 4.4-4.247a1.03 1.03 0 00.264-1.037.97.97 0 00-.783-.692l-6.124-.882-2.73-5.478c-.33-.663-1.369-.663-1.697 0l-2.729 5.478-6.124.882a.972.972 0 00-.783.692c-.111.37-.009.774.264 1.037l4.397 4.248zm2.995-4.944a.958.958 0 00.718-.53l2.11-4.233 2.108 4.234a.96.96 0 00.719.53l4.604.662-3.294 3.182a1.032 1.032 0 00-.293.915l.79 4.56-4.209-2.191a.924.924 0 00-.852 0L25.95 17.21l.789-4.56a1.03 1.03 0 00-.294-.915l-3.293-3.182 4.604-.663zm29.624 7.203l-5.152-.777-2.293-4.823c-.314-.657-1.283-.657-1.597 0l-2.293 4.823-5.153.777c-.348.052-.635.323-.74.695a1.08 1.08 0 00.254 1.04l3.69 3.733-.867 5.256c-.062.372.071.751.343.98a.829.829 0 00.942.1l4.622-2.523 4.622 2.522a.831.831 0 00.398.103c.193 0 .386-.07.545-.203a1.06 1.06 0 00.343-.98l-.868-5.256 3.691-3.734a1.08 1.08 0 00.254-1.04c-.105-.37-.393-.64-.74-.693zm-4.79 4.36c-.23.233-.336.582-.28.923l.635 3.844-3.41-1.862a.824.824 0 00-.796 0l-3.411 1.862.635-3.844a1.07 1.07 0 00-.28-.922l-2.632-2.664 3.697-.557a.91.91 0 00.677-.526l1.711-3.6 1.711 3.6c.137.287.39.482.677.526l3.698.557-2.633 2.664zM6.994 20.561l-.868 5.255a1.06 1.06 0 00.342.98.829.829 0 00.944.1l4.621-2.521 4.622 2.522a.832.832 0 00.398.103c.193 0 .386-.07.545-.204.272-.228.405-.607.343-.98l-.868-5.255 3.691-3.735c.259-.262.358-.667.254-1.039-.105-.371-.394-.642-.74-.694l-5.152-.777-2.294-4.823c-.314-.657-1.284-.657-1.597 0l-2.293 4.823-5.153.777c-.347.052-.635.323-.74.694a1.08 1.08 0 00.254 1.04l3.69 3.734zm2.651-4.328a.91.91 0 00.677-.525l1.711-3.6 1.711 3.6c.137.287.39.481.677.525l3.698.558-2.633 2.663c-.23.233-.335.582-.28.923l.636 3.844-3.41-1.862a.824.824 0 00-.796 0l-3.411 1.862.635-3.844a1.07 1.07 0 00-.28-.922L5.949 16.79l3.697-.558z" fill="#FF8A00"/><path d="M14.04 54h2.005v2h-2.006v-2zm0-4h2.005v2h-2.006v-2zm0-4h2.005v2h-2.006v-2z" fill="#FF8A00"/></svg>8854 26.9651 54.0207 26.9994 54.156 26.9994C54.349 26.9994 54.5416 26.9299 54.7011 26.7958C54.973 26.5672 55.1056 26.1884 55.0439 25.8155L54.1758 20.5603L57.8673 16.8257C58.126 16.5634 58.2247 16.1581 58.1207 15.7867C58.0158 15.4157 57.7281 15.1451 57.3808 15.0927ZM52.5894 19.4538C52.3594 19.6862 52.2536 20.0352 52.3096 20.3758L52.945 24.2201L49.5342 22.3584C49.4082 22.2903 49.2725 22.2551 49.1363 22.2551C49.0001 22.2551 48.864 22.2894 48.7384 22.3584L45.328 24.2201L45.963 20.3758C46.019 20.0352 45.9137 19.6862 45.6836 19.4538L43.0511 16.7899L46.7483 16.2325C47.0361 16.1895 47.289 15.9942 47.4252 15.7074L49.1363 12.1069L50.8474 15.7074C50.9836 15.9942 51.2365 16.1885 51.5243 16.2325L55.222 16.7899L52.5894 19.4538Z" fill="#FF8A00"/>
<path d="M6.99376 20.5611L6.12564 25.8162C6.06438 26.1891 6.19703 26.5679 6.46848 26.7964C6.74037 27.025 7.10393 27.0641 7.41152 26.8967L12.0333 24.3749L16.655 26.8967C16.7824 26.9657 16.9177 27 17.053 27C17.246 27 17.4385 26.9305 17.5981 26.7964C17.87 26.5679 18.0026 26.1891 17.9409 25.8162L17.0728 20.5611L20.7643 16.8265C21.023 16.5642 21.1217 16.159 21.0177 15.7875C20.9128 15.4156 20.6242 15.1449 20.2778 15.0926L15.1255 14.3159L12.8322 9.49294C12.518 8.83569 11.5485 8.83569 11.2348 9.49294L8.94152 14.3159L3.7892 15.0926C3.44151 15.1449 3.15375 15.4156 3.04887 15.7875C2.94532 16.159 3.04358 16.5642 3.3027 16.8265L6.99376 20.5611ZM9.64528 16.2334C9.93303 16.1903 10.186 15.995 10.3221 15.7082L12.0333 12.1078L13.7444 15.7082C13.8806 15.995 14.1335 16.1893 14.4213 16.2334L18.1189 16.7908L15.4864 19.4545C15.2563 19.687 15.1506 20.0359 15.2065 20.3766L15.842 24.2207L12.4312 22.3591C12.3052 22.2911 12.1694 22.2558 12.0333 22.2558C11.8971 22.2558 11.7609 22.2901 11.6353 22.3591L8.22499 24.2207L8.86 20.3766C8.91597 20.0359 8.81065 19.687 8.58062 19.4545L5.94805 16.7908L9.64528 16.2334Z" fill="#FF8A00"/>
<path d="M14.0391 54H16.0446V56H14.0391V54Z" fill="#FF8A00"/>
<path d="M14.0391 50H16.0446V52H14.0391V50Z" fill="#FF8A00"/>
<path d="M14.0391 46H16.0446V48H14.0391V46Z" fill="#FF8A00"/>
</svg>
