<svg width="30" height="30" viewBox="0 0 30 30" fill="none" xmlns="http://www.w3.org/2000/svg"><path d="M15.054 14.48H4.746c-.471 0-.535-.07-.428-.535.959-4.286 3.53-7.11 7.72-8.432.707-.225 1.467-.29 2.201-.402.198-.032.252-.097.252-.284 0-.214-.123-.22-.278-.22-.386 0-.386-.005-.386-.396 0-.08.005-.161 0-.241-.01-.15.053-.21.203-.21.686.006 1.377 0 2.063.006.064 0 .182.059.182.102a2.31 2.31 0 01-.005.637c-.011.054-.199.097-.306.108-.171.016-.348-.027-.343.246.006.193.086.236.258.246 1.055.08 2.089.29 3.07.686 3.744 1.532 6.026 4.28 6.862 8.24.08.374.005.455-.397.455-3.455-.006-6.91-.006-10.36-.006zm0 1.747h11.914c.407 0 .418.016.423.423v1.688c0 .412-.016.423-.418.423H3.305c-.584 0-.584 0-.584-.584v-1.554c0-.375.022-.402.392-.402h9.316c.873.006 1.751.006 2.625.006zm9.589 9.937c.005.327-.204.477-.46.348a19.79 19.79 0 01-1.206-.632c-.247-.144-.456-.134-.697.011-.37.214-.75.413-1.135.595-.113.048-.3.059-.386-.006-.086-.064-.128-.251-.113-.375.06-.45.15-.894.236-1.344.038-.204 0-.36-.16-.504-.333-.31-.665-.621-.976-.953-.085-.091-.17-.268-.139-.36.038-.107.204-.214.332-.235.445-.086.895-.15 1.35-.204a.5.5 0 00.429-.305c.193-.412.391-.825.61-1.216.065-.113.215-.23.333-.236.102-.005.246.129.305.241.22.397.413.81.605 1.222.092.193.226.273.434.3.461.059.922.123 1.377.209.118.021.268.128.306.235.032.091-.043.263-.124.343-.326.343-.67.665-1.017.991a.48.48 0 00-.15.482c.09.472.171.96.246 1.393zm-19.184-.005c.075-.44.145-.916.246-1.388.049-.22-.01-.375-.171-.525-.327-.305-.654-.61-.959-.932-.086-.09-.182-.267-.15-.359.038-.107.204-.22.327-.246.444-.091.894-.15 1.35-.204a.514.514 0 00.444-.326c.188-.402.38-.81.595-1.195.064-.113.214-.236.332-.241.102-.005.247.129.306.236.214.39.412.793.594 1.194.097.21.236.311.466.332.445.049.884.113 1.323.199.13.026.306.128.333.235.032.108-.06.284-.15.38-.306.328-.627.633-.96.933a.506.506 0 00-.165.525c.08.428.166.857.225 1.29.016.135-.016.333-.102.403-.086.064-.29.048-.407-.006a15.92 15.92 0 01-1.163-.605c-.214-.123-.402-.134-.621-.005-.397.225-.798.434-1.206.632-.273.144-.492 0-.487-.327zm7.35.048c.075-.434.145-.895.241-1.345.059-.273.01-.476-.209-.664a11.35 11.35 0 01-.884-.857c-.096-.102-.182-.284-.155-.407.021-.097.209-.198.337-.225.429-.086.863-.15 1.297-.193a.543.543 0 00.482-.353c.182-.397.37-.793.584-1.174.064-.112.214-.23.332-.235.102-.006.246.128.305.235.22.397.413.81.606 1.222a.508.508 0 00.434.305c.46.054.921.123 1.376.209.113.021.258.123.29.22.032.096-.032.262-.113.348-.327.343-.67.67-1.012.99a.48.48 0 00-.15.483c.085.44.171.873.23 1.318.016.134-.021.332-.107.396-.086.065-.29.049-.407-.01a20.686 20.686 0 01-1.184-.616.515.515 0 00-.552.005c-.402.225-.82.44-1.232.643-.268.118-.498-.01-.509-.295z" fill="#2F2F2F"/></svg>