<svg width="30" height="30" viewBox="0 0 30 30" fill="none" xmlns="http://www.w3.org/2000/svg"><g clip-path="url(#clip0_634_22389)" fill="#2F2F2F" stroke="#2F2F2F"><path d="M11.554 21.954v-4.627h6.857v4.636a5.056 5.056 0 011.35-.168l.079.001V6.846a4.36 4.36 0 014.355-4.355 4.36 4.36 0 014.354 4.355.714.714 0 001.429 0 5.79 5.79 0 00-5.783-5.784 5.79 5.79 0 00-5.784 5.784v2.767h-6.857V6.846a4.36 4.36 0 015.992-4.037.714.714 0 00.538-1.323 5.79 5.79 0 00-7.958 5.36v14.951l.112-.002c.523 0 .951.061 1.316.159zm0-10.913h6.857v4.857h-6.857v-4.857z"/><path d="M.714 23.223c.993 0 1.443.27 2.014.613.637.382 1.36.816 2.748.816 1.388 0 2.111-.434 2.748-.816.57-.342 1.021-.613 2.014-.613.992 0 1.443.27 2.013.613.638.382 1.36.816 2.749.816 1.388 0 2.11-.434 2.748-.816.57-.342 1.021-.613 2.014-.613.992 0 1.443.27 2.013.613.638.382 1.36.816 2.749.816 1.388 0 2.11-.434 2.748-.816.57-.342 1.021-.613 2.014-.613a.714.714 0 000-1.428c-1.389 0-2.111.433-2.749.816-.57.342-1.02.612-2.013.612-.993 0-1.443-.27-2.014-.612-.625-.375-1.334-.798-2.67-.815l-.078-.001c-.54 0-.978.066-1.35.168-.586.162-1.009.414-1.399.648-.57.342-1.02.612-2.013.612-.993 0-1.443-.27-2.014-.612-.397-.238-.828-.497-1.431-.657a5.067 5.067 0 00-1.317-.16c-.038 0-.075.002-.112.003-1.314.023-2.017.442-2.636.814-.57.342-1.021.612-2.014.612-.992 0-1.443-.27-2.013-.612-.638-.383-1.36-.816-2.748-.816a.714.714 0 000 1.428zm28.572 2.857c-1.389 0-2.111.434-2.749.817-.57.342-1.02.612-2.013.612-.993 0-1.444-.27-2.014-.612-.638-.383-1.36-.816-2.749-.816-1.388 0-2.11.433-2.748.816-.57.342-1.02.612-2.014.612-.992 0-1.443-.27-2.013-.612-.637-.383-1.36-.816-2.748-.816-1.389 0-2.111.433-2.749.816-.57.342-1.02.612-2.013.612-.992 0-1.443-.27-2.013-.612-.638-.383-1.36-.816-2.749-.816a.714.714 0 000 1.428c.993 0 1.443.27 2.014.613.637.382 1.36.816 2.748.816 1.388 0 2.11-.434 2.748-.816.57-.343 1.021-.613 2.014-.613.992 0 1.443.27 2.013.613.638.382 1.36.816 2.748.816 1.389 0 2.111-.434 2.749-.816.57-.343 1.02-.613 2.014-.613.992 0 1.443.27 2.013.613.638.382 1.36.816 2.749.816 1.388 0 2.11-.434 2.748-.816.57-.343 1.021-.613 2.014-.613a.714.714 0 100-1.428z"/></g><defs><clipPath id="clip0_634_22389"><path fill="#fff" d="M0 0h30v30H0z"/></clipPath></defs></svg>