<svg width="28" height="28" viewBox="0 0 28 28" fill="none" xmlns="http://www.w3.org/2000/svg">
<path d="M16.135 22.1666C15.9607 22.1672 15.7885 22.1287 15.631 22.054C15.4735 21.9793 15.3348 21.8703 15.225 21.7349L9.58999 14.7349C9.41839 14.5262 9.32458 14.2643 9.32458 13.9941C9.32458 13.7239 9.41839 13.462 9.58999 13.2532L15.4233 6.25325C15.6214 6.015 15.9059 5.86517 16.2144 5.83672C16.5229 5.80828 16.8301 5.90355 17.0683 6.10158C17.3066 6.29961 17.4564 6.58417 17.4848 6.89267C17.5133 7.20117 17.418 7.50833 17.22 7.74658L12.005 13.9999L17.045 20.2533C17.1877 20.4245 17.2783 20.633 17.3061 20.8542C17.334 21.0753 17.2979 21.2998 17.2022 21.5011C17.1065 21.7024 16.9551 21.872 16.7659 21.99C16.5768 22.1079 16.3579 22.1692 16.135 22.1666Z" fill="black"/>
</svg>
