<svg width="28" height="28" viewBox="0 0 28 28" fill="none" xmlns="http://www.w3.org/2000/svg">
<path d="M11.865 22.1666C12.0393 22.1672 12.2115 22.1287 12.369 22.054C12.5265 21.9793 12.6652 21.8703 12.775 21.7349L18.41 14.7349C18.5816 14.5262 18.6754 14.2643 18.6754 13.9941C18.6754 13.7239 18.5816 13.462 18.41 13.2532L12.5767 6.25325C12.3786 6.015 12.0941 5.86517 11.7856 5.83672C11.4771 5.80828 11.1699 5.90355 10.9317 6.10158C10.6934 6.29961 10.5436 6.58417 10.5152 6.89267C10.4867 7.20117 10.582 7.50833 10.78 7.74658L15.995 13.9999L10.955 20.2532C10.8123 20.4245 10.7217 20.633 10.6939 20.8542C10.666 21.0753 10.7021 21.2998 10.7978 21.5011C10.8935 21.7024 11.0449 21.872 11.2341 21.99C11.4232 22.1079 11.6421 22.1692 11.865 22.1666Z" fill="black"/>
</svg>
