<svg width="18" height="18" viewBox="0 0 18 18" fill="none" xmlns="http://www.w3.org/2000/svg">
<path d="M9 1.44653C12.4618 1.44653 15.2679 4.2526 15.2679 7.71439C15.2679 10.363 13.4068 13.2494 9.73285 16.4045C9.52857 16.58 9.26811 16.6764 8.99879 16.6762C8.72948 16.6759 8.46919 16.5791 8.26521 16.4032L8.02221 16.1924C4.51093 13.1195 2.73214 10.3038 2.73214 7.71439C2.73214 4.2526 5.53821 1.44653 9 1.44653ZM9 5.30368C8.36063 5.30368 7.74746 5.55766 7.29536 6.00976C6.84327 6.46185 6.58928 7.07503 6.58928 7.71439C6.58928 8.35375 6.84327 8.96693 7.29536 9.41902C7.74746 9.87112 8.36063 10.1251 9 10.1251C9.63936 10.1251 10.2525 9.87112 10.7046 9.41902C11.1567 8.96693 11.4107 8.35375 11.4107 7.71439C11.4107 7.07503 11.1567 6.46185 10.7046 6.00976C10.2525 5.55766 9.63936 5.30368 9 5.30368Z" fill="black"/>
</svg>
