<svg width="20" height="20" viewBox="0 0 20 20" fill="none" xmlns="http://www.w3.org/2000/svg"><path d="M7.42 13.75h3.015a4.917 4.917 0 00-.018.417c0 1 .38 1.967 1.06 2.906-.45.8-.965 1.26-1.477 1.26-.998 0-2-1.745-2.532-4.337l-.048-.245v-.001zm-.192-1.25h3.5a4.6 4.6 0 012.19-2.418v-.081c0-.572-.022-1.13-.064-1.667H7.146l-.028.407a21.655 21.655 0 00.11 3.759zM15 9.583c1.286 0 2.448.53 3.28 1.382a8.414 8.414 0 00-.112-2.632H14.11l.032.548c.012.257.02.517.024.778.27-.05.55-.076.834-.076zM2.555 13.75h3.588c.304 1.736.82 3.212 1.494 4.245a8.357 8.357 0 01-4.96-4.012l-.122-.232zm-.723-5.417h4.059a23.509 23.509 0 00.027 3.684l.048.483h-3.92a8.372 8.372 0 01-.214-4.167zm10.621-6.185l-.09-.142a8.356 8.356 0 015.447 5.077h-3.825c-.263-2.013-.798-3.743-1.532-4.935zm-4.918-.111l.102-.031c-.735 1.125-1.28 2.774-1.57 4.71l-.052.367H2.192a8.357 8.357 0 015.344-5.047h-.001zM10 1.668c1.1 0 2.205 2.119 2.678 5.153l.04.262H7.281C7.733 3.91 8.87 1.668 10 1.668z" fill="#fff"/><path d="M18.75 14.167a3.75 3.75 0 00-7.5 0c0 1.552 1.183 3.179 3.5 4.916a.416.416 0 00.5 0c2.317-1.737 3.5-3.364 3.5-4.916zm-5 0a1.25 1.25 0 112.5 0 1.25 1.25 0 01-2.5 0z" fill="#fff"/></svg>