<svg width="40" height="40" viewBox="0 0 40 40" fill="none" xmlns="http://www.w3.org/2000/svg">
<g clip-path="url(#clip0_538_26)">
<rect width="40" height="40" rx="4" fill="#2F2F2F"/>
<path d="M27.222 28.6654H11.3331V12.7765H20.8809L22.3253 11.332H11.3331C10.95 11.332 10.5826 11.4842 10.3117 11.7551C10.0409 12.026 9.88867 12.3934 9.88867 12.7765V28.6654C9.88867 29.0485 10.0409 29.4159 10.3117 29.6867C10.5826 29.9576 10.95 30.1098 11.3331 30.1098H27.222C27.6051 30.1098 27.9725 29.9576 28.2434 29.6867C28.5143 29.4159 28.6664 29.0485 28.6664 28.6654V17.832L27.222 19.2765V28.6654Z" fill="white"/>
<path d="M31.2163 11.217L28.7824 8.7831C28.6744 8.67479 28.546 8.58886 28.4048 8.53022C28.2635 8.47159 28.112 8.44141 27.959 8.44141C27.8061 8.44141 27.6546 8.47159 27.5133 8.53022C27.3721 8.58886 27.2437 8.67479 27.1357 8.7831L17.234 18.7425L16.4324 22.2164C16.3982 22.3848 16.4018 22.5587 16.4429 22.7255C16.484 22.8924 16.5615 23.048 16.6699 23.1813C16.7784 23.3146 16.915 23.4222 17.07 23.4964C17.225 23.5706 17.3945 23.6095 17.5663 23.6103C17.6551 23.6201 17.7447 23.6201 17.8335 23.6103L21.3363 22.8375L31.2163 12.8637C31.3246 12.7556 31.4105 12.6273 31.4692 12.486C31.5278 12.3448 31.558 12.1933 31.558 12.0403C31.558 11.8874 31.5278 11.7359 31.4692 11.5946C31.4105 11.4533 31.3246 11.325 31.2163 11.217ZM20.5852 21.5014L17.9418 22.0864L18.5557 19.4648L26.009 11.9609L28.0457 13.9975L20.5852 21.5014ZM28.8618 13.1814L26.8252 11.1448L27.9446 10.0037L29.9957 12.0548L28.8618 13.1814Z" fill="white"/>
</g>
<defs>
<clipPath id="clip0_538_26">
<rect width="40" height="40" fill="white"/>
</clipPath>
</defs>
</svg>
