<svg width="24" height="24" viewBox="0 0 24 24" fill="none" xmlns="http://www.w3.org/2000/svg"><path opacity=".6" d="M11.247 4.985l.753.862.753-.862c.724-.83 1.386-1.478 2.177-1.93.773-.442 1.726-.728 3.07-.728 1.275 0 2.482.42 3.382 1.42C22.29 4.755 23 6.485 23 9.327c0 1.212-.628 3.255-2.425 5.65-1.713 2.285-4.453 4.838-8.575 7.203-4.122-2.365-6.862-4.918-8.575-7.203C1.628 12.583 1 10.54 1 9.328c0-2.842.71-4.572 1.618-5.582.9-1 2.107-1.42 3.382-1.42 1.344 0 2.297.287 3.07.729.79.452 1.453 1.1 2.177 1.93z" fill="#2F2F2F" stroke="#fff" stroke-width="2"/></svg>512 2.32666 6 2.32666C7.34378 2.32666 8.29694 2.61311 9.06964 3.05493C9.86093 3.50737 10.5227 4.15564 11.2469 4.98458Z" fill="#2F2F2F" stroke="white" stroke-width="2"/>
</svg>
