<svg width="30" height="30" viewBox="0 0 30 30" fill="none" xmlns="http://www.w3.org/2000/svg">
<path d="M15.5 2C8.6 2 3 7.6 3 14.5C3 21.4 8.6 27 15.5 27C22.4 27 28 21.4 28 14.5C28 7.6 22.4 2 15.5 2ZM15.5 7C17.9125 7 19.875 8.9625 19.875 11.375C19.875 13.7875 17.9125 15.75 15.5 15.75C13.0875 15.75 11.125 13.7875 11.125 11.375C11.125 8.9625 13.0875 7 15.5 7ZM15.5 24.5C12.9625 24.5 9.9625 23.475 7.825 20.9C10.0145 19.1821 12.717 18.2485 15.5 18.2485C18.283 18.2485 20.9855 19.1821 23.175 20.9C21.0375 23.475 18.0375 24.5 15.5 24.5Z" fill="#2F2F2F"/>
</svg>
