<svg width="25" height="25" viewBox="0 0 25 25" fill="none" xmlns="http://www.w3.org/2000/svg"><path d="M11.747 5.165l.753.862.753-.862c.755-.865 1.448-1.544 2.279-2.02.812-.463 1.812-.763 3.218-.763 1.337 0 2.607.44 3.553 1.492C23.26 4.936 24 6.75 24 9.717c0 1.274-.66 3.41-2.534 5.91-1.792 2.39-4.656 5.056-8.966 7.527-4.31-2.47-7.174-5.138-8.966-7.527C1.66 13.127 1 10.991 1 9.717c0-2.968.741-4.78 1.697-5.843.946-1.051 2.216-1.492 3.553-1.492 1.406 0 2.406.3 3.218.764.83.475 1.524 1.154 2.279 2.019z" fill="#fff" stroke="#2F2F2F" stroke-width="2"/></svg>1262 2.38184 6.25 2.38184C7.65628 2.38184 8.65641 2.68176 9.46823 3.14594C10.2986 3.62075 10.9917 4.30027 11.7469 5.16475Z" fill="white" stroke="#2F2F2F" stroke-width="2"/>
</svg>
