<svg width="25" height="25" viewBox="0 0 25 25" fill="none" xmlns="http://www.w3.org/2000/svg">
<path d="M12.4145 3.14551C16.5473 3.14551 19.8973 6.49552 19.8973 10.6284C19.8973 13.7903 17.6755 17.2363 13.2894 21.003C13.0455 21.2125 12.7346 21.3276 12.4131 21.3273C12.0915 21.327 11.7808 21.2114 11.5373 21.0015L11.2472 20.7498C7.05523 17.0813 4.93164 13.7197 4.93164 10.6284C4.93164 6.49552 8.28165 3.14551 12.4145 3.14551ZM12.4145 7.75034C11.6512 7.75034 10.9192 8.05356 10.3794 8.59329C9.83969 9.13302 9.53647 9.86506 9.53647 10.6284C9.53647 11.3917 9.83969 12.1237 10.3794 12.6634C10.9192 13.2032 11.6512 13.5064 12.4145 13.5064C13.1778 13.5064 13.9098 13.2032 14.4496 12.6634C14.9893 12.1237 15.2925 11.3917 15.2925 10.6284C15.2925 9.86506 14.9893 9.13302 14.4496 8.59329C13.9098 8.05356 13.1778 7.75034 12.4145 7.75034Z" fill="black"/>
</svg>
