<svg width="30" height="30" viewBox="0 0 30 30" fill="none" xmlns="http://www.w3.org/2000/svg"><path d="M22.5 3.75a1.25 1.25 0 011.241 1.104L23.75 5v20a1.25 1.25 0 01-2.491.146L21.25 25v-6.25H20a1.25 1.25 0 01-1.241-1.104l-.009-.146V10c0-2.763 1.875-6.25 3.75-6.25zm-7.5 0a1.25 1.25 0 011.241 1.104L16.25 5v6.25a5.002 5.002 0 01-3.75 4.843V25a1.25 1.25 0 01-2.491.146L10 25v-8.907a5.003 5.003 0 01-3.744-4.585l-.006-.258V5a1.25 1.25 0 012.491-.146L8.75 5v6.25A2.5 2.5 0 0010 13.415V5a1.25 1.25 0 012.491-.146L12.5 5l.001 8.415a2.5 2.5 0 001.24-1.954l.009-.211V5A1.25 1.25 0 0115 3.75z" fill="#2F2F2F"/></svg>