<svg width="28" height="28" viewBox="0 0 28 28" fill="none" xmlns="http://www.w3.org/2000/svg"><path d="M10.388 19.25h4.22a6.916 6.916 0 00-.025.583c0 1.402.533 2.755 1.484 4.07-.63 1.119-1.35 1.763-2.067 1.763-1.397 0-2.8-2.444-3.544-6.072l-.068-.343v-.001zm-.268-1.75h4.9a6.44 6.44 0 013.065-3.384V14c0-.8-.03-1.58-.09-2.333h-7.99l-.04.57a30.32 30.32 0 00.155 5.262zM21 13.417c1.8 0 3.426.74 4.59 1.934.143-1.229.09-2.472-.154-3.684h-5.682l.044.766c.018.36.028.724.034 1.09.378-.07.77-.106 1.168-.106zM3.577 19.251H8.6c.424 2.43 1.146 4.497 2.09 5.942a11.7 11.7 0 01-6.944-5.616l-.17-.326zm-1.011-7.584h5.681a32.912 32.912 0 00.039 5.156l.066.677H2.865a11.722 11.722 0 01-.3-5.833zm14.869-8.661l-.126-.198a11.698 11.698 0 017.625 7.109h-5.355c-.369-2.82-1.117-5.241-2.144-6.91zm-6.886-.155l.142-.043C9.664 4.383 8.9 6.692 8.493 9.403l-.072.514H3.068A11.7 11.7 0 0110.55 2.85l-.001.001zM14 2.336c1.539 0 3.087 2.965 3.75 7.213l.055.368h-7.61c.632-4.444 2.223-7.581 3.805-7.581z" fill="#FF8A00"/><path d="M26.25 19.833a5.25 5.25 0 10-10.5 0c0 2.174 1.657 4.451 4.9 6.884a.584.584 0 00.7 0c3.243-2.433 4.9-4.71 4.9-6.884zm-7 0a1.75 1.75 0 113.5 0 1.75 1.75 0 01-3.5 0z" fill="#FF8A00"/></svg>