<svg width="18" height="18" viewBox="0 0 18 18" fill="none" xmlns="http://www.w3.org/2000/svg"><path d="M13.688 4.35a1.312 1.312 0 100-2.625 1.312 1.312 0 000 2.625zm-9.375 0a1.313 1.313 0 100-2.625 1.313 1.313 0 000 2.625zM9 4.35a1.313 1.313 0 100-2.625A1.313 1.313 0 009 4.35zm3.337 4.8l-.844-3.112a.782.782 0 00-.168-.3 3.257 3.257 0 00-1.294-.825 3.02 3.02 0 00-1.012-.17 3.02 3.02 0 00-1.013.17 3.13 3.13 0 00-1.294.825.95.95 0 00-.168.3L5.7 9.15c-.075.3.075.638.394.713.056.018.093.018.15.018a.58.58 0 00.543-.412l.75-2.738v9.544h1.125v-5.362h.75v5.343h1.125V6.731l.75 2.738a.58.58 0 00.544.412c.056 0 .094 0 .15-.018.262-.075.431-.413.356-.713z" fill="#2F2F2F"/><path d="M5.306 9.056l.844-3.112a1.27 1.27 0 01.225-.45 3.153 3.153 0 00-1.069-.6 3.02 3.02 0 00-1.012-.169 3.02 3.02 0 00-1.013.169 3.13 3.13 0 00-1.294.825.95.95 0 00-.168.3L.975 9.15c-.075.3.075.638.394.713.056.018.093.018.15.018a.58.58 0 00.543-.412l.75-2.738v9.544h1.125v-5.362h.75v5.343h1.125v-6.075c-.393-.187-.618-.656-.506-1.125zm11.719.094l-.862-3.112a.782.782 0 00-.17-.3 3.256 3.256 0 00-1.293-.825 3.02 3.02 0 00-1.012-.17 3.02 3.02 0 00-1.013.17 3.31 3.31 0 00-1.069.6c.113.13.188.28.225.43l.844 3.113a.965.965 0 01-.506 1.125v6.094h1.125v-5.362h.75v5.343h1.125V6.731l.75 2.738a.58.58 0 00.544.412c.056 0 .093 0 .15-.018.318-.075.487-.413.412-.713z" fill="#2F2F2F"/></svg>