<svg width="22" height="22" viewBox="0 0 22 22" fill="none" xmlns="http://www.w3.org/2000/svg"><path d="M2 11.018a8.83 8.83 0 011.212-4.527 8.958 8.958 0 013.285-3.285A8.808 8.808 0 0111.006 2c1.218 0 2.381.238 3.49.714a9.075 9.075 0 012.869 1.921 9.055 9.055 0 011.92 2.875A8.82 8.82 0 0120 11.018a8.791 8.791 0 01-.714 3.495 8.985 8.985 0 01-1.921 2.87 9.047 9.047 0 01-2.87 1.909 8.814 8.814 0 01-3.49.708 8.82 8.82 0 01-3.507-.714 9.055 9.055 0 01-2.875-1.921 9.011 9.011 0 01-1.914-2.863A8.77 8.77 0 012 11.018zm1.98 0c0 1.897.69 3.544 2.072 4.942 1.382 1.382 3.033 2.072 4.954 2.072a6.85 6.85 0 003.513-.942 7.04 7.04 0 002.565-2.56 6.818 6.818 0 00.948-3.512 6.85 6.85 0 00-.948-3.52 7.026 7.026 0 00-2.565-2.564 6.85 6.85 0 00-3.513-.943 6.85 6.85 0 00-3.513.943 7.026 7.026 0 00-2.565 2.564 6.85 6.85 0 00-.949 3.52zm6.335 0V5.689c0-.187.064-.345.193-.474a.645.645 0 01.474-.194c.188 0 .346.065.475.194a.645.645 0 01.193.474v4.919l2.87 1.674a.65.65 0 01.304.404.62.62 0 01-.07.498.614.614 0 01-.574.34.599.599 0 01-.34-.094l-3.057-1.78a.642.642 0 01-.333-.234.637.637 0 01-.135-.398z" fill="#2F2F2F"/></svg>